<mxfile host="65bd71144e">
    <diagram id="9OG3ERZ7ZjmK1j11j6qN" name="第 1 页">
        <mxGraphModel dx="1202" dy="1783" grid="1" gridSize="10" guides="1" tooltips="1" connect="1" arrows="1" fold="1" page="1" pageScale="1" pageWidth="827" pageHeight="1169" math="0" shadow="0">
            <root>
                <mxCell id="0"/>
                <mxCell id="1" parent="0"/>
                <mxCell id="12" value="" style="shape=ext;double=1;rounded=0;whiteSpace=wrap;html=1;fontSize=18;fontColor=#FF0000;strokeOpacity=0;" vertex="1" parent="1">
                    <mxGeometry x="34" y="-60" width="1030" height="480" as="geometry"/>
                </mxCell>
                <mxCell id="2" value="" style="shape=image;verticalLabelPosition=bottom;labelBackgroundColor=#ffffff;verticalAlign=top;aspect=fixed;imageAspect=0;image=data:image/png,iVBORw0KGgoAAAANSUhEUgAAA/sAAACKCAIAAAB6jM2UAAAACXBIWXMAABJ0AAASdAHeZh94AAAAEXRFWHRTb2Z0d2FyZQBTbmlwYXN0ZV0Xzt0AACAASURBVHic7Z17cBTXne9/bQH2Jk5SXpA0yvIQ0r2WqAWCrdy15EAsYCtIGCSx9o2lCg9hx455OLdsA5YQ2ZAYIQG2t9Y2whsnlmS8JdlJDCMeklMLyDExQ4ISLmLDYy+SENiakXw3u1XXtbEk3PePfszpx+np0Ty61fp+SqX6zenz+J1f/87p35w+3SOIokgAAAAAAAAAj3Kb0woAAAAAAAAAEggifgAAAAAAALwMIn4AAAAAAAC8DCJ+AAAAAAAAvAwifgAAAAAAALwMIn4AAAAAAAC8DCJ+AAAAAAAAvMwkY1JXV1fy9QAAAAAAAADETl5eni7FJOI3zQcAAEClq6sL8yQApkjrhhggADgCb+Eeu3oAAAAAAADwMoj4AQAAAAAA8DKI+AEAAAAAAPAyiPgBAAAAAADwMoj4AQAAAAAA8DKI+AEAAAAAAPAyiPgBAAAAAADwMoj4AQAAAAAA8DKI+AEAAAAAAPAyUUf8wdYygaE+kAitLAjUO9EqAADYI1AvCIJQ1ho0ScXcBSY4GB4AOEVUEX+wtUzIqMg/IyoMtAQKkjxI86tEUazKT2KLAAAQLf6KJnZiDHRWO6YKAG5jog6PYGsZvtcAx4gi4g+2PlnhL20ZYMJtX/nhgZbS6gI4MAAAqNS1tJRW16vrmMHW+uq6lpZSR3UCwCVgeADgBPYj/mBnq5/qqsp92mRfYXkpVXcGyPTba6CeuX2n2RAUzicXU4/WBzSl2Dxmjch3AwXNncJAPZtJW5/2GAAAxJ3M8qo6dR0z0FThryssNGQynbx06fqZzJiuTdXvl2Cn3bKyMm47mmI8BQCIC3aGBydgiHJ46PYh652ZKVNWZie2MGAMYPhDMlCfUeEnqi7QpnN7qlWerwMA9rAf8ff1+ak0M9OQHg75meBfIthaX618SQjUCxmt5QPsdiDWs6sLnqTXpGNV+fmFdeRv7WQuTE0V/tKWSsNenmBrmVBA6i6jM/kVGdKgyMxkNAl0VlO4vmBfwLQfAAAQP/IL60haxwx0VhunL+7kFagXCgItA+qBukBfkCzSiYjqwvXU+Ssy1Kk1UK/Zh1mV74/cvmVDAMSHCMODGzCMYXiUtoTrKa0u0KxBMmVeK2fa5w8PUzQBDBFxhmR+1UBLafjY4XKfRU+DrWXs4B1oob6+mM0OJjiigXPnzhkTRY2jco+cqWOG10BLqfKBEdVRoBQyq1mbFs5rbE1TMNwM0+CZOiqtqzM5AAAAY8R8nhRFZl6SJpszLaXhj+qExZ28eDMtfwY25mOmXU0R7bTImTztNgQAl3PnzvEGiJ3hwQ8YYh0ejN9rohWTY5zYIvqW2bL63BahkUE/AOzCG4C21/h9mflEEdd62NX5YGerv7S80Eck3SDwV2QwN6gKLB/U0dwuCHRWU12h8WHdYF8gfH9MEARByKhQlrB8mfnk7+uTSpeWV1aWl0p69fX5KT/TZ6gMAADiiq+8qs5fUVBBxvuT/MlLmvsKDLfxeelEpNlFEJ4EufdlLdu3bgiAeGExPPgBw1iGB7s3Jhx4BPsCxIsFrGILm5gPSQMWoVF+YZ16CBvrQFywv6snM7NUjqG1SPv7lYA8v7JFDq0DTRV+zbZ/47dgi1fu+Mqr6qSQP9hab3LPT8H4Ffiw1GR+oVQ+0FldV1Xu8xVKIX+wL2D67QEAAOJNfmVLKSnrHno4k5ev/LAoSit80vVeDmB46YF6gd2bMGD7AUje5MlrCID4Yjk8OAFDlMND/4LBM3V2lePGFpGJckjyQqP8KrW09O0DcT+IEfsRv/Qdul4/92sDfimbv6IpoF2Y1+yrt4e8zS/A3CnQa5SZr93ubygf6GvtrJa0kEL+pqZWPwJ+AEBy8JUfNg0UrCcvIuVyL57RPdNkSA90VlNpy2tmwUhmJjfSiNw+VwEA4gVveEQOGGwODyk+OWO2uOjLtFhxjDw8LLAYkgYi91T+KjPQEnUMBYCeKN7O6St/raXUr3l+JdhallHh144naXW+oECzMC8nal8TEWHlKL+ypdRfUaC7U2DMkcF88Q22lqmfMjNL/RUV1UqA7yuvqvNXV/vx1C4AwGm4k1ewtYydYtWtB7x07c3XYOuT4S0E0vLLk+EHFZlj/MmT1xAAyYIfMEQ5PHS7kQP1zHbi/MI6Yl4trj1mGVtEwGJIGrZHW4RGgXp2Ud9iix4AttHfTrJ6Is3kBpXpAytn6sjsnpiuKO9RFn0B7SFDbt1dOt0zMYaseBIGABA7Np7c1WGc6UwnL94Uy596mWqkJyGZWY4pZTjGmTztzPEAWGHnyV0dps+ZGwOGqIcHe6DujK51ZgQYjlnEFpZ664oahl34mCYGMvRU1z5CF2Af3gAURFEkLV1dXXl5eQQAAIDDeJwnA/VCAZ3Bb5aDRNPV1UVE42uABFvLMlrLB2zv1gfAtfAGYBS7egAAAIwjNFsRpN9HwWNMAEhothYHmip4jwwC4BEQ8QMAgGcJv2MwoyIf6/sAMDAvxiwItGB9H3icSU4rAAAAICH4yg+L5ZGzATARya8SxSqnlQAgeWCNHwAAAAAAAC+DiB8AAAAAAAAvg4gfAAAAAAAAL4OIHwAAAAAAAC9j/j5+R1QBAAAAAAAAxIjxffzm7+oZXz+cAcbGePwJoQQBU9hkPP6wToKAz6jAFCowhQQmCh1wjOQAO0vwFu6xqwcAAAAAAAAvg4gfAAAAAAAAL4OIHwAAAAAAAC+DiB8AAAAAAAAvg4gfAAAAAAAAL4OIHwAAAAAAAC+DiB8AAAAAAAAvg4gfAAAAAAAAL4OIHwAAxi+BekEQBEGoDzitiasItpYJgiAIZa3B2CsbdzZ2r8KKZnE5L3HENXpF47j6vMpnx867rID73G6sxHUacQFRRPzKiNCeT/fOLGBMqHOGGV5xe9uYWmPCWcE2JuaaeBMDZwRNQK8xjT8cD0qSD3PpNDJxzAA8T7Cz1U9U2lKZ77QmwJyxrfFX10+8q9dEwVd+WJQYaCmVkurOyCni4XKfs9o5Qrj/MVoh2Frm3St8oF4QMir8VNoywDpQdYHcYTnsiSLwVWLD8WoxxW+kgeSvyJiAQT8govwqZeo4UyelhAeJWGUjOIp+7LgXxRhuu5a4Va+oUK/edrwq/gSaKvxEpeWFCTGhl0aBY4xxV4+/4kmYHQAgE6gvqCYioroq9YrpKz8c/to4gfGVV0mBnr+1E7MmAMCLBFvrq0lzBQCuYwwRf11LSymRv6LJdOXN+r4+swcofKdTOh7+rPsOp7slOl4X/DyCyT15zU439Qy3so6gPWk6Hxmv39mDnB7qHFbtXqA+o8JPVF3ApAdbyzT9Z+8CyLLB4mz9GttpG3bHQPGVH67Kp2BrmSB/I/BXZITVM253YKwlZFT4iUi1WLiv3nAgfi8szGIsWhZhy4zbN6KaXhMsxpNJVwwXHTPf119wjOW01XJtnCg4Fzre2BmvO+h0+4AZ92R6ZB0D2JsKogw29PuTI/qlTq+yshjGGVvRk63G43ZnPNNrscnMEnkIGM9LpI5JO3qortDy9oJmWJWZbPAzHwa8UWCfxE0j4wvRwLlz54yJzA3JujOyWNoyoEm1LqP5LCexC4B1Z/j55Y9KduaWKBg7vBOtYLKrRxSN50h7VtQzLJ8k/W1sObfy0dp9kgbXFCZL1JKqZ+pIv3+Fcdpwd87U6U2l6epAS6nGndkcOlOZ1cBooVVIPFOXkFFy7tw5jq2YoW1+SuUMfLUMw1tJMFjMFQ4U2WdUnbgpdnphMItuSOkqtx6eiYFnCtMZRJ+ouyZEUJjrJOHs8vjTHFAb1ZfjnAFrG4/BFGHdTDtn3rz+lFucQ96V1qmJNfJEobuok/4Kwu3JQEuplFN36vXTRZTBRoRYxeBoPD/mnCS+Y0SqyMpTeUqZGkjfR8shYLzyRZhBmKAwQh7+sLKO9yKPAjFyVCOaVj3macS18Abg2CJ+5vRGmFkijCprhzWcYYT88WSMEb9+ZtWOUrP52ThidBEx33+ShHX0ZtRNH6hL/TDtA5t1DBG/8duWeXmOovGGfyE3ifm1JzbyfM2bDZhuuciB7Ef83DFhrxfmV3GDYfXXSdPhmRjiEvHz+sOpk2cNs4yqZ9o8AxFtHL0pdPVoR4HxuqZLsRHrRLjSJpuoI35O7GURRxu7qE2JLtiI/E3DvHaLmFFvEHNLRajInqdy+mT+0U7FUcdaUmFLd4s0rCLFe3GM+OM0jbgY3gAc69s58yvlrT2dJgeZ+yfyjZgxEeyTbpsod3EE9TY/cBJfYXkpEVF1Z4CIAp3VRBb38nyZ0gF/Xx9RX59mn0aMDuIcfX1+xi2N/WBGQDx9NtgXYG3H1u4rLC81bn9JKsqjb9rIv7rAWh3mVqoNU40rB1KULKgmoroz4afpbPSCaxalLH/ARTU8xwdjtwYRtT4pWbe0ZcDmGbBTazxR2svPVB+BYWdNPnG60roXJQYweRhUPZSZqSRlZkrRWaAv4ROghWLxrSimGU95gkhyI3nbjdxSXKdSZQu/5YCJMKwSH+/FfRoZh4z5ffyyL1VXa70k2FomeY7xlu2YMX6nG9eP049/2JhCiiiifR2X8Uvy+BtEvD4E6gWhIGBYp4gXvNEgv6XhTJ0yZTq2b1sf+fOjFt3rfaIw1bhwIM3eAfWdRfoMxl6M3SxEFI/hGS+UuNUUJlKzJEZrkN8vX9vNXjcxLvzIlERcaYF7GaOn5hfWEUlzgTbgj7ViDXF9KWdi4r2ETiPjiBh+gUta5tciO1V8zr26zoE3XLgMZemgurNeiigsFjo0SzHKIoy0/jh+ycws5fUh0FlNpS2vJeQ7qS8zP9JokMPtM3XJHTbBVuPDjcrJ5oZ28vpzNC93GH8OlF8VjvmVL2HWvbA2i411zGiGZ2IxU9a4oG1JzNYobRlQru/hi7X1GUjiWjGnPZMFbC1xvdK6F4t7HSaHonStBCkW34pinfHkMK26s1V+sFYZR3GcSm2+lDPCsEpovJeYaWQcEstv7vrKX9PH/Hr3VSausaFcLDUWDtS797UTEwdl6aA6wuu4gq1PSrfPpDyqy7ArnuPwLfW+8qo63X6VQL30KTOzlJm91f5LxTLzdbOKNobX5jYhv7Kl1F+RwRhLCbWDrWWMNsG+QFKueyzVBYL2FTGaM6/Oqsx8rp9nlQu2gjKbMNek8ehA+VXKgpJy6qx7YW0WZQVffVma2Rxrd3gmGnVXgfpmN/n2v/1INYI1ZEuyl4hAvcEZVIPbOwO2bBxHDGaSQqjwyoFx7MT3SutelBiAOU/KVKcsOSq/DqS4Vt2ZZNynkYdY+LeJ9LNXnCqKecaTnbm6okL7Jp34TaVSNB15mok0rCLFe8ZRYJ/ETCPjEf0dHZtP7uoTTd5LQURUWmr9lFaEB084tyvx4G5cGOuTu7qjHIewOF/cF+A4RrRP7oaPmfWSsUFpyxnts7nhY4Z3Pii5LZ7c1VfPmE6nTYIMavHkrsmZ1514jYra59+k7KWG0c8eNz7R5agDRfGuHpMXhYiWvYhgFss5Vp8lCZax+biquVtEfnI3kpMYLWn1UKPJM5JmfmTDxjGYwuwSZj6uzdQxeZtKpCttsonXk7vaMkYP4k7CiX5y16CWmWNqDcK3VvQebutdPcbCBnfgDgHbT+7KGW06WuRhZRXvmYwCPXw7J2wacSVxeFcP8BixnWjOtcvpK83YgM/bxOpdPRMMd9shwrsC44u7TZFUYAqJiTdRmLxZjMWr1rDzUs4IheM6SXnVztES73f1gAmOsi/OuT3CAAAOGJ4AJBN1I5ann6swEIjhSSF1GxZ+pDd5THJaATAeUcYqBisArgPDE4BEE6jXv8+SfQPvBCG/ShSrbOcOtpbp3rhZ2jKANy8mE0T8YAz4yg+L5aZHopsBAABxhz88AQDxAZe6qMHE5DjY1QMAAAAAAICXQcQPAAAAAACAl0HEDwAAAAAAgJdBxA8AAAAAAICXEURR1CV1dXU5ogoAAAAAAAAgRvLy8nQp5u/qyc7OTrwywGGuXbuGEy0BU9jk2rVrhPmBiOAzDDCFCkwhgYlCBxwjOcDOEtIANIJdPQAAAAAAAHgZ8zV+41Yf4ElwolVgCvvAVhKwgwpMoQJTqMAULLBGcoCdLcAaPwAAAAAAAF4Ga/wTGpxoFZjCPrCVBOygAlOowBQqMAULrJEcYGcLsMYPAAAAAACAl4lhjf/cP04rep6IftDxyf/6eny1Cr275q+faCcq/sm/Hvy79KQ2PbGI7tvwpTdW115f/w8/WpqaMIWcAwsD9jHa6j//8z8jlvrKV76SGHUkhk788Olff1PyzqETP3y6cVbNW4/OSWSL8JkwMIUKTKECU7DAGskBdrbAPOIHIFkMnfjh043k1e8RIK5cemN17cklCY/kARHJQ1N+x1v2xB6hl95YXXtSlie2/8ESAIxfYljjV/KIYty/U4WrM687uqbP/WNq8S6i4p9cfHOVcsMgdGjt3CfaiXa0D03kuwTRnTlRLhLX0z1tyc6DS6JWJf443f54Ymy2ioOFc9cfPLieU5MokuqdouqqsbZoiZd9ZujEzmeaZm0/uHOO/OHpNzIOrufGd142xaXGNbuvV750cGmq9KH2hzNf2sn/+uNhU0RpCS+bYgzAGskBdrbAfB+/yIR1fDna/NHJUgInj6bhiHWa6hl9fyGHP7hHH8juke3gBj3j2F83qJEI+Y9Hmq5lV66YI6VPW/LtxXTy7RNDrtAtufLgibdP0pJHlqZK6bkrKrOvNR39Iye/a9ROgBy2BImiKOY+WJl9renoJV5+t6jtAhkGSabsuAIukU2x2tXDlpTkwUPr5n6vXUopLi5Wj6l5zr2ctnxXuIYdxwe//3USRVFTUnNQreN3TNFw3awSvJ5I6WZNa9ptf2Ju2hNEtOP4cVquZN1VnLqLiIr/6WLzqjRRJL2i8oFwevE/XdxHW+d+r10+ZKJb6N21+r6q+ihaqoWVBNkaoh0dVNMNHlqrKNW8Kk3WwfQccGzIOoo2cejkj55tUn+1bXH1m+vnaPP8sXFt3alwTdmVL/5wSapcj7awdEgkokuaMnKllxrX1vVLWaT6Nbnkes30h5x8mcV6ZrHOP0Z56OSPnm2aWf2mstY8dGIn42hE2YsYlVjfZn1KcanY9eEPn/EuDw30E83MmKYemJO/mE5dHxJpmuO6JVn+5Po1yl40VT00bd6ibPpgYIjmpHLLukDtBMh6S6TOW5RNH3w8RLkWo8l5td0nO66Ah2XHFXCbrCOKXT1dL6cvryWiote6m1el0eChde3tRESinF0+XnM89P08osFD6+Y9uWt52jkpd2pZU6hMW9Wu5WmilFfK3EFq4a6X09vbJT3MdVdGTuSmy5pCM6Sjst5ERBTqni61KBeR2pLVUDJ2vZy+vPZ7c9P6j4e+n6fo0f69ue2qkUyU01lJ/ayoKuoL67piR4dwZXKCWpvlObB7ookuNa2rP7W4qvnv58gff/zxoJibKqptSXovrmqunKMWeLbR11w5h2jo5I+3NM9UCw+d/PGxIVGcRpea1tX3r3uhWY7flUq1e4WGTv54SzOpudTCicdikAAdY7NVHCwsqs5CBi8dOvnjLadlP9LkUxyyWfXVZ38kvvD3S2Lfle5dnxm6fo2yF05lOigSUb80Ys3wrCmGPu4nmukLf/chUSS6dp0/LXnVFNFbwrOmGBuwRnKAnS3g7upRBVkePPRyLRER1Xx/VRqJopg6I4+YTF0vy4HuI/eKRERp3ygrIiLqOPybQW10LIrivffXEBFR7W/OiaIodrU+2UFyYSIimjGjSKOMiT7KZyJSmy7PIyISU+9Xmw5p8rP1GOsfPLRV+tbxlBQdM1p2hSspeu1CMBgMBkOhZskOGt1CqpWeKks1/d5p3i/F5vZ0MPm2IZLBEKLBEGxZ9SuD0bZDJ39+ihZXrctV0nPX/WBxqq4tmrOuaV2uUjb3wXXZ1D8wRET0Sf81yp45Talz2uIfVM4hddUwVUnPXfcDY8x16Vjztex1G5akyvpMW/z3lXN4esZRVuyfqPq9IbMfTW0YkVh1YOqRvbRyjk4Hg3zpWPO1xVVaX712unsoJn3U/y45NfGWVRPaGia8dC/IHDsQZ8eph00R7rnOFJzR4WFTjE12XIGJIzuugLOymmKEu6uHLSOKIvXf6CAiopr77zWrbrC/i4iIOp6c73uSU1XXy+kP1po0pZQtKrs/TcpsfiFhEtnKQ2rT89L1TVv3i61LFJUe1j6YrtfSxHx6+0jcUK2UJ6drrhgmdWquIVHroNFnMJIheH6g68sn/dcoe+E0Xh/D8uXmyvpT4WqyF5IoipR732I61bxlXTMRLa5qWpcr5Z82b2E2NdevO0VE2ete+MHiaVp9RFGkT/R7CSLrADl5MoudPLwiMesgkvzFcuG0cJ1sQ4w8NNBPdK2+8pSmBtlX46KPG05Ngk63aG5e53VLuttH4bouUTtRpohmFLtEbTfIjiswoWTHFXCJbMT2rh7GlLKoSVE+FB34341l+g0kohg6vP5rGzqIaPvRgafyiLpeyVixW182XLcxxUKZCE2LJqqbdUdNklXUVTMYQSVetboUQ8+0x6PUQVtbREOY6cuxrmjWTfbA5eb1ezqz1u5rXDyNiOiTU89vVbZU5KxtbFxLn5x6fuubp+orTxEVPte4LpemFu5oLJQLNm+pbKastfukuF+tVVRlE10TjCONjlPGZqs4WJhxEIOXyg6kZAnnExVPS4w6nmTqjCw6dX1IFKcqKdxZQTnsUVNM9c0guv7xkJijOFCkWcqrpojeEp41xdiANZID7GyB7d/cVTba/P7GoNnhtBnSfpwO/4cmxwc/9Evbdg48oo9j2bI3bnAa73olIyMjIyNj/WGTyq2bto/Sw90fdtkvNHh4vaTaK11sHRwr6fYrRauD0lMO8TLEtJlZ1NP/iWWey2c7KWvtBkMYxdSy+AeNjY2N+9ZmUefZy+H03HWNjY2Njc8VUs/pbl0j0zJmEvUPWDcNAEleaitfxkwTTwPWGEbiJwP9lLVwXjKeqHEZhunwk/4eKrwv1zmNnAKWAGCcY/V2Tg2pBSXLiIg6Nrx9ThTF8GYaOfe9m49sl45vOxRSCp17JSOj8lBITJ2uxPT9pmULthMR0e5X5KLK5ha1db1eZLtpURSnT5c0V7b1i6KoarT7w3NqUml9wzIiot0rXlETQ4cqMzLkjxzTsKpEspLBErquRNBB7gl19Yc0rctyJEMYFTdJFcWphQ8XUuee5ktKwqXm508OKY3JeWZkUU//kJxh6OSBN3uUQ5ea14eLikP9PZQ1Y6ooDp18Xq5FFEVRfgpsqrZWMWf5mqyeNw+cDFf8PFNX4uCZAujgzQ+8+SXCrBINw8PDIuMsU+d+g3UVjQuy+WSf2sr65Mnnm/91dDRGfbztM5LVjslGGzp54M2erG/MnWqe2dOmkKbDnyuOdql5TycV/k0OJ7eXTRGNJeIy5L0ErJEcYGcJ3lXY/m/uppU1nqf1Cza+t3vlV3cT0bJly7QZ8jZ//HHBq19duXvjgq9uVFOXNdyfRpS2+XxDF79s3uaPj9BXV+5+Ty66bNkyovdsq2bZNFFa2Z4G/3sb35Nr337k4815lLf5yPbdK3eTpNGyhvONZWlpZY0f3394/YKNspoy2zfnEdlcNbdhJY0lzCrg6kBpZY1HbjJ2itIQtsld+8Y2enTvo53y56w1e3WLe9MW79h2Q82RtWbbmqy9v5EL/03h3nBRylqzd8fiaUQ07xu0bdujB5X0wm1vrDWuDk1bvGMv7WLyFW57IyrVgVe5ceNG1peZz1pX0biglmmLd7yR8SbjzkSF27ZevUpz8HuhfGTzPvqo9FEdxhOQ3LVvbHvzUXVOMp+5JgSwBADjGsH4baCrqysjI8MRbTxI16t/VVJHRNVtH2022dHkJAMDAzjREjCFTQYGBojIaKs///nPEcvecccdsTR969atzz777Atf+EIslUgMDw+npKSkpKTEUgl8RgWmUIEpJHgTxYQFjpEcYGcJaQDm5emDTtv7+AEAgMMdNoixiZSUlMuXL3/++ecx1jM6OnrmzJkYw30AAABgfBHFL3CB2HCjUd2ok0PAFPZxylYLFiw4fPjwvHnzpk6d+uUvfzmqqH10dHR4eLirq+vOO+9ctGhRXLoAn1GBKVRgChWYggXWSA6wswW21vh5FkR65PR7N928efPmzZub7rWX34l0N+iA9PGV7ogOgiCsWrVq9uzZP//5z1NSUr773e8SkZ3/e/fu7e/v7+zsvO++++655x5BEBKhZxyrQro30l2oEkzheLrjCkyodFcp42C6hPk+/vT0dIsywBuEQiGcaAmYwiahUIiIYCuCzzDAFCowhQQmCh1wjOQAO0tIA9C4jx+7eiY0ONEqMIV9YCvpLgHsoAJTqMAU6j00mEICBkkmMLLuJjYLntwFAIDowEUFAB4YHTokg8AsIDlYeBrW+Cc0ONEqMIV9YCsJ2EEFplCBKVRgChZYIznAzhZEiPh5N6+R7o10NsVtuiU5HT5vM51gK4PPuEclp9LhEmoKTKGmwBRsIqaL5KTD64iPecQ/ZcoUizLAM+BEq8AU9oGtJGAHFZhCBaZQgSlYYI3kADtbYP6uHkdUAQAAAAAAAMSI3Xf1LFiwgLT3CCB7Tz5//vw999zjHn0clP/whz/A5236DGF+ICIMHwwfMxmmICLCRGGQz58/L1nDDcp4WFbt7AZlHB+ARswj/tHRUdN04DFGRkacVsEtwOftA1tJYPiowCVUYAoVmIIF1kgOsLMFVm/nlL40QPaqzOIGfSC7X2Zxgz5usINLVILsHtklamB0uEp2XIGJIDuugBtkC8zX+NXCbtAeMuQkjBALn+8fve3/DN/2f28Jn4q2BlVUfFEQp6aI/23K5zMnxoZxlgAAFNhJREFUfR5Rzxu3UpKmydhsNUFk9kaqS1RyUGY/ukEfZ2WYQt1aAFNIMgziiOy4Ak7Jqr8ZMY/4AQBENCzS6f+a1D+awB+q+1QUPh0V+kdvy550676/uDVFMM/mHk0AGeJdAIAKRocO3VdBABKKhafhN3cB4JLoIJvl2mjK2f9Kcb8mAAAAABh3eCriD77z8O2333777Q+/E3RaFU/S3VBaurUj5LQayaJ/9LakBdkS10ZTTFt0jyYuJtSxVfXOUMfW0tKGboc1AgB4E3a2AWDcYLWPXxRFdmOQ+2UlRRAEQRCc18flMmk3fkWW1TLxtG2wY+sTB2jD6y8UpzlnEzLz+X8bdiDk/bfh22ZO+lynp1OazJosksFnyMxWN27ciFjh9OnTYz1f3Q0lNR3Ldvk3zTfmCY99WZZmgcT7TOKaSJbcvb+kRqht2zhPmx5q3/L4gatS7rs3/GRfkS+a4eMp+cL+0h3vSTIt29W2ab5Ffm+YIti+5YkTS19/oThdm35hfwljCdORKLtE0k2h9dfXXyhKs8g/qMtcnM7k6W4oqemQO1lU698w1zARvXvgatGufek2dXPIIBNRhpGJGYBGIryrh/XUcSFL/XWPPm6WSTs125HVgvHTx1e0z9/2QnG6ozYx7de/3wqnJ41/vyUY9XRKE1YHYwZeOo84nK95G9va2jbNjzz2iYgS7zOOD+G4yKH25veMfQm1b3n8QFZtm9/vb2t7fQMdeOLAxSROC26SuxtKd/Ru+Im/ra2tra226L0dW9qD1mVdoXZMcve7SjjMpnc3lOzo3fATv1+xxNb2YASXSJbaQdlf29r8fv/rG+jA4w0XufkH1cxtbW0/2UAHHm/oVvN0N5TU9Gx4XfL82qKOmq0dg7p6uj/ooKJF823rKTBfBZ07pxNCVnGDMg7KxCHC2qFg+ObkfpnIeR28KrO4QZ+E9svkfThDxzrXFB/S/L0ypMvSWHxo57FP9SVDvTuNmU0SpUZ1eho1GWrUqVHceUJ7i3noWOea4j9cMumgUcNPTzx9aE3xocYLbDa2UTs+YIdkjn1KvM+4wXVjkQc7tpaUlEhLnbo83b88cPXuDQ/Nk9LTi9cVUUdzx+DEmhYEQSAKtTd3UNG6Yp+UPu+hDXdfPfBud6SyTqs9ZvliQ0lJSXiJm8kTtoRApFriomk9ZCyeUPniu7K/EgmCIPtre8g8v+rcRETkUzITkSAMyp1Ml/JLnfzlRa2JPuigokXz7OtpGo9CTpDsuAJukHnY3y0QfOfhKVOmTJny8DtBRZQ+mWUyHjUWf/idINHZvVLOvWdVccqUvWeJiPnMVBNO5GhgtxsapAbVQ9JHjc6Re2irtF5/Ja/7CLVvKQljsiW6u6GEZUt7iFc4fEhbRq60u0FXWpNLc8QdZG5vX3VQ/lu45PhpY7RtQvrsnXsy6fhpJqr+9ET9+Wu5C156KnVsemRv/paixqqXNlNTpfHrhy0uvfKrpsuZ29tXrZ8/NkWSR6h9i8YZWUd7nFmUNMD6lAtdyiHSi19oa2tre33D3fojoZs9RFnT09WEeYuK6GrvYFLVcweDvVfp7tlp6uf0e5feTT03PetD8zbK9zIMR1xsiaj81TKzjU52f9AR/r5AnMuaBjuhGABJgBvxSz7K/pdpWz1zM+0fGRn+YJf0ad9vpTyhdx6eMnN1G5W8dWNkZHi4/60Sals9c8q+32pqaFs9c+bqNm0rRLRj0ZRfF44M979VIn2YMmXK+w+MjIwojez9raRJ/nPDw8MjIyPDw8MjIzfeKiFqWz3z4XdC0lFL/QVBOLt3yszVbUQlb90YGR4eHjldSwZNTHstyXIPS97qHx6WdWtbPXOKrJuaV28xCrc+ZdEO2vXBiGIf2rFI+kJgqq1z/7sbSh4/kFV75MiRtra2I0d2F/XcHJR7xPauqLatTcqzu+iqdBeViAY7tj5+IGu3XPbI6xuod0ggoosNJTU9G36qpNcW9Xw0GD5rcuuDHVtKano3/lTK0/b6BqF3KAm95vlMRFLXt6/avvxPTZWmq+la5t+zfTmdbOyVovKhY79rupy5/R9mm8X7UWuS+mDhwaYF2cdPm9xesOTSK4d2H7+rsumeOebH42gr01JR/w/Xo/PSn264W6ePLIfat5TUUNhXsw48vqV9MB4+44KhGr8hoEkZ6r1KOVnpujy9Hw1G5RJe+B+62UuUNT1d64RXewe97xhalxDUQFmT52rvIN8lkqbqUO9Vunt2uuYcESmXLV3+wd6rlJOVplO496MQkTD4UQ9R1gyfttRV6RImpVz8oOPupff65KMXG9gLVlttkVSP0waZyP8dV8AN/3mYR/yCsvmM/S8fK3nrxi8fSRdFITOzhIiIzvYNCIIgBpqlQL522yPpoigIGd/euouIqGbhvt8yd7WUcHl4+BePZITTa0+PbP0bUch44NslSivP5YuiqDTy274BvT6imC7nbnvnfeko0wGj/uLA2/t2SI1t+3a6/nkaUQxvYlBLEZsSemfT6jYi2rX12xmCIIpifqH0hWFHZ4B9cERtkTQpgT2LdhBRyVvr8kVRFISMbyrK/zpkpm3i/7M9Zf8PdrzZQUW7N81XUuZuenF5mtwjNef8jW0b5yul5j60IYd6bwRFQRBCPVcoJytVqc23/MWNc0VBGLzRQ5Q1I01Jn7/pRenJKpE5Xxd+0XA1Z+OWojS5Fd/yfRvnJsEapj5vMWw0zPn2gmzqC1ywkfOphUsun99/7FMK9e5/9U9L9pjG2WPVJH32I8vp2r8M2l/nHzrWufv4XZVNhUvTTY/zNBmbhvE5XyR7i8FLRUFg/ZkUX73wywNXi2q1vnr1ZFcwDj7jyLBNyH8iijQ5WPQ3bifXnf/JcEExpjBWcl7hxLiE6Ynm9TeeQz7e58ika2yK9dHBjqaOu/82zycfDd7oJZr9V8oFS5i/cV+Rjz9GXHFmPf3fOwMwtv+8qzD3F7gEyy8N2hSBiELXf0tERCWzZimlMjNLiNqIzvYFhfsEXVljzRFaUfMH3354Rvgugeaopf5C/3WpVO0D90kV81o31+26XHzHoik7IlmDb5+21TMmryY9Jto693+w5wrlLE0zO8r2ThAu7l+5ndnumbNUEIho/jeLqKPh8ZIGIirafWSTshU4729zqGF7SQcR5Wz86QvF6lpR2AKhj3qJZk/3Jb3XvLNgj/S0RbnU9P7Q+vkR9+ekrt+Tuea5X60houULd3J30YxRkzkPZNLx6xdCszkRvIahY53PvPqnJXtWWWaOr63icL6Ueiy8VOOrgx/1El2pKdHuS5Z9dcyaqJcWz/ynBAwfj/w39s6yv84rnDCXMPbOtL+i9glmN54jyxSLo6Hfn7ia87fb0kmQphdf3tIcaqhhLmtmLYrMF2Y3nFlv/3dcAcf/i/w1uPH1ym06u3fy5BnKziF5W0+yqT09omPbffZLy5oz/PIRX+KUTRjd+1eu3N678adHJH66MUc9NG+TmtKxfeXKlSv3dxMRpRe/cOTIkSO7i4iuNHx35cqVE3M/9fx7ti8nosztY92+Hx/+5XfPvPonyl2wwvV79+NAjuqnCi8U2/hOZIF6afEoaVk5dKVnIm7b15M+fTZRrys2qzuMfUskf3RE5a9WmSN0MvT7E1eK1rGTh63Lmi4eBSChWHhaNO/q4dUoCETky5TC3rbr15VkZVH8vkyfph47dZKpxmffryEiotptj/iIV2eY4NsPTZ48efLkyXvPEhGzDSloml/pgpmegkCzZknFa94/a5ZHU9rCPu+8HzTmSb5snINUOS0rh66EH3oytVX3rzsoZ+NWZerTdlcgkmfCo0d/tjGHOn7dHU6ft+nIkSNHj9YV0ZUTvw9py6bPyApPt8m0CUuC5+ULf9h9nIj6dj/dy99+Y0fPmLh2mSr3LMi+fP4ZKzV0Ohg1iVa3OJ67tKwcMx30447Sp8+mKyd+P8iWjYsc3+64TPapgY+cHrrZSzlL83ym+VncoX8cZTk+DKcP9lyh4m/Oi1DWabXjIOv7okTKap7BnitU/MC8SGWToKqPuXIIgqD4670+s/y6qF4QBqXM6USCkK5+HZDzD/ZcoaIHpJ8dCP3+xBVF1tY5b9ORo0ePHtktX9YimtQN59ersuMKuEHmwd3HLwnsliD2PoFmq5Ak37dWWnCv2Su9mybYureGiKj29Lb7SN4MZ79OMt2KpATdZ/uCRKIoKt8pzH+CQYeY/s1HpJ3zq98MiKIgCME+NXYXDNUbdM4o3y/3cOHes4r+A60PyV8oNKXN7LNNek64bfWmt4NKnWf3Tp780Nva/MmR2fuMujzpxeuKqH17w0Ul/UIDu24hCKRcBofksqHjexuuKMcvvLqi4aJaZ6j3ivSUVOj4s8+2K2/3k7c/Tk+n8GvTiYjmPrQx50rDvvaQrM9g+5b93UmwCXF83h6hwQ8u05IH7KzZDzU+15e9+VsHmxZkSxv6zdHpaVeRS+/3Ue6s+TaWr7M3/4+l82fvbFqQffn8M9w3/Jj6jDHdrnqxnaPPPvuMGVKiL2+p5CpSnlD7voYrpJk35LLzHt6Yc6XhMcYng+1bGs6PjsaoT4zFXS7P/58bc640/KJbSh9s39dwJWfpvZyfNCLeJcMLsvzyxuNBKb17/3b5Xeym+b1kCn1ffMul11gGpTyyJQy/TsWQPLWlK8cv5IuF4q/poqLqypUrnz2urPRJU8Iv5Qtc8PheKTMRiWLa8spi6V2doigKwsX92zuo6JtzRVEQhO5fNFxRZLnd4PEtysVRFMXBm/Jljaen4+d0IsiOK+AGmUeEffyMrH4WBMOwJiJByCh/d7Tw7b+b/p3vzJj8HelIyT/ffFfesyIwlQlkEpTLCWorupYEQRCEjPJ3T1+ftLBG2QxfUiI9KUBKndrq9F3IeOTdm/R307/TVrNwco1SnMmgr549KBCR2sOahZNqwkdrt+ULAlmVlqrIf2509IE9kxbWaDKU/HNhhqyo6VSbUNl4LgRBIJq/+WidsKJ6ZbucmLPxZz7GnoIg+Ja/WNe7onpFh3y8bmNO9QnJTvMfKN5evUIpSjkbf/bi8nQiyltKjz22okFJL647ummeah7FxL7lL/6Mnn3suysbwtlYH0iyfWxx6Z3z13IXbIq8PebTE0+fPpm74KUHv0g0e9Pm68+8+rsTXzc+NWucuewR6n37OC3ZY/ryHw7ps3fu+Y81z53emfWtnQ9+0SxHHG1l2i/78vXr1+/+ivxREIjSNa6iumC4rOLbvuUvHp2xfwXjk1RcV/vHPwpf+9qY9REN+/hj6ZpTcuj4s48pX9WvbF/ZwYxWxbwrV0qHwwdcpH+S5Pmbj9btX6HOScrMZTEEXKH2GOXu/SuqlZHS8NiKBmaqJo4lzEdHctX2cf01nEcdrVaZad4m805S9wcdVFw3X71gERH58pYSc7licrN6OmGQCS07roCzsshfJTQ51tXVtWDBAl4BTxHYM2lhDRHVnh59Lt9pZZLO+fPnJ8qJjoSpKX72pxR9vqFjnc+8+pXt7eo7dj498fSvmi6zr7sZaiw+fX2zSQA9dKzzmVeJyfnpiad/1UQLXtK/oPOxu25F1MTQyoU/rHmuj5YvPKg8HmBQlVtWfYTX8D5+oybnz58nIqOtrqub+fjMmjUrYh4LRkdH//znP995552xVCLx2WefpaSkTJrEXe+wA4aPCkyhAlNI8CaKcUz3/hVNs9mvBlEBx0gOsLOENADz8vJ06TFd8wCYgPTtLu4Lf1q+8OA/6FfVr736qzWvMp9zF7y0/j+eefVP2Zu/xazof3Fp1YIPKs8/88qdB8f0FK+2lbsqm4xv3dGqSmQW1lPqg4Xbew7tfu6Q6RcVe8QYzdth0qRJFy5cyM/Pv+22mN43MDIycurUqaIi4y8MAQCAKaHjTe05S38W2wP/ADgMIn4AzLnzNvp/n2uTUh8sPPigdanU9e2r1psdONh+jz4pffbO9tmGRu1owm3Fhqqp69tX6ZLmPLXq4FPGRt1GQUHBW2+9lZeXl5aWdtddd6WkGG7C8BkZGfnss88+/PDDL33pS8uWLUuckgAAz5G+/MWjy51WAoAYsfrNXQkvywVVt27dunXr1nP57tAnuTL73w36OCib+vxfpth+ZDZ+/GWKaNTTKU3IzGckHDlfgiCsXbs2JyensbExJSVlxYoVgiCsWLGCiKzlqqqqnp6e9vb2wsLC+++/n61wbPqoRnDKFK6SHXQJF8ouUcNBmZ1GXKKS4zIMkkzfc4kyTsnEx3yNny0DGfLElHPuoP4RSjI5d5jo45Qm7jkXrDxp0qRt27YR0bFjx2z+37NnDxHl5ubGSwc1xT1mgewG2SVqOCtjdJjK8JPkyI4r4Lis8zQW9925B8AdzJos/vcpSV1c/+s7xFmTTVp0jyYAAAAAGI8g4geAS8EXkxdq//UdYt5fcNtyjyYAAAAAGHdEfh+/G35NAHKCZEEQHNfBJTKZ+fztAj1wpzh7VLj8X+K/3xL0D/LGgztvo79MEXP/Qpg1mUSRO+5uv00o/BLNHqFEa5JzB2VOISLBqIO1rSaUrL6P3z0qOSvThHcJYnBcDTeMDpiClWGQZMqOK+CeAaiDu49frQWyV2Wca5vyzEmfz/qyQMT9leJ4yLbOxazJ4qzJJIqfJ0YHvQyfsZZdogZk98guUcMNskvUcIms/neDMh6WHVfAPbIpVu/qgQwZMmTIRlnEj2hC5sguUQOjwz2yZBCR+aFulyjmVdlxBZyVRf4aP/bxAwBAdOgiPACACkaHDskgMAtIDhaehjX+CSqzuEEfyO6XWdygjxtkl6gB2T2yS9Rwg+wSNdwgO67AhJIdV8AlshFuxM9uBoLsPZnFDfpAdr/M4gZ9HJRhCsgWw8QNamB0uEqGQZIjO66AG2TiE+EXuFh/hQzZqzL70Q36uFkm2EqZVR1XwyUy+9EN+jgrwxQi84i/S1RyVoZBHJEdV8Ap2SLoN9nj39XVxcsNAAAAAAAAcDN5eXm6FKunegEAAAAAAADjHbyrBwAAAAAAAC+DiB8AAAAAAAAvg4gfAAAAAAAAL4OIHwAAAAAAAC+DiB8AAAAAAAAvg4gfAAAAAAAAL/P/AbAVpUScflFOAAAAAElFTkSuQmCC;" vertex="1" parent="1">
                    <mxGeometry x="40" y="121" width="1017" height="137.7" as="geometry"/>
                </mxCell>
                <mxCell id="3" value="" style="shape=image;verticalLabelPosition=bottom;labelBackgroundColor=#ffffff;verticalAlign=top;aspect=fixed;imageAspect=0;image=data:image/png,iVBORw0KGgoAAAANSUhEUgAAA/IAAACDCAIAAAChlreWAAAACXBIWXMAABJ0AAASdAHeZh94AAAAEXRFWHRTb2Z0d2FyZQBTbmlwYXN0ZV0Xzt0AACAASURBVHic7Z17cBTXved/jYTsJE5SDkgaZXkIadcSFSDYygbJgVjAVpAwaETstaUKD+HYDi9nyzYPCfANiZFGgO3UtY3wzcOSDLckO4lhhEFy6gJyTKzBQTELvuFxV0gIYs1I3vimal0xknDvH/2Y08/pkWame2a+n6LEb06fx+/8+ndO/+b06R6O53kCAAAAAAAAxDMT7FYAAAAAAAAAMF5Shf+6u7vt1QMAAAAAAAAwNgoKClLZDzaqAgAADqe7uxvzJAC6CIuDGCAA2IK8Oo9NOAAAAAAAAMQ9COsBAAAAAACIexDWAwAAAAAAEPcgrAcAAAAAACDuQVgPAAAAAABA3IOwHgAAAAAAgLgHYT0AAAAAAABxD8J6AAAAAAAA4h6E9QAAAAAAAMQ9lsJ6f2s5x1Dvi7ZWKnz1drQKAADW8NVzHMeVt/p1UjF3gSQHwwOAmBEyrPe3lnNZlYVdvMRAi68oxiOxsJrn+erCGLYIAADh4q1sYidGX2eNbaoA4DSSdXj4W8vx5QXEjhBhvb91XaXX3TLAxNSuiiMDLe6aIngpAADIeFpa3DX18oqkv7W+xtPS4rZVJwAcAoYHADHBPKz3d7Z6yVNd4VImu4or3FTT6SPd76G+euZum2L/TjCfWEw+Wu9TlGLz6DUi3rzjFDf2fPVsJmV9ymMAABBxsiuqPfKKpK+p0uspLtZk0p28VOnqmUybrkxVb29gp93y8nLDdhTFjBQAICJYGR4GAUOYw0O1bVjtzEyZ8nIrsYUGbQBjPCR99VmVXqKaImW6YU+VyhvrAIAB5mF9X5+X3NnZmvRgXM9E+AL+1voa6ZuAr57Laq0YYHfvsO5bU7SOXhGOVRcWFnvI29rJXH2aKr3ulirN1ht/azlXRPKmoK7CyizB87OzGU18nTUUrM/f59PtBwAARI7CYg8JK5K+zhrt9GU4efnquSJfy4B8wOPr85NJOhGRJ1iPx1uZJU+tvnrFtsnqQm/o9k0bAiAyhBgehgHDGIaHuyVYj7umSLHQyJR5pYJp33h46KIIYIjIYEgWVg+0uIPHjlS4THrqby1nB+9AC/X1jdvsINkQvOfs2bO8FoU3Gh7p8jBjaKDFLX1gRNnVpUJ6NSvTgnm1rSkKBpthGuzykNvj0TkAAABjRH+e5HlmXhImm64Wd/CjPGEZTl5GM63xDKzNx0y7iiLKadFg8rTaEACGnD171miAWBkexgHDeIcH4/eKaEXnmEFsEX7LbFl1bpPQSKMfAFaRB6Dpar0ru5Ao5KoNu87u72z1uiuKXUTCUr+3Mou5n1Rk+oSMYuHf11lDnmLtU7L+Pl/wdhbHcRyXVSktRrmyC8nb1yeUdldUVVW4Bb36+rxUmO3SVAYAABHFVVHt8VYWVZL2TqPx5CXMfUWau+5G6USkuOkfnAQN77Catm/eEACRwmR4GAcMYxke7FaWYODh7/ORUSxgFltYRH9IajAJjQqLPfIh7IMDY8N8E052tlsMlJUIe+6lqLuwqkWMn31NlV7FVnzt91mTF9q4Kqo9Qlzvb63XuUUnof0ye0RosrBYKO/rrPFUV7hcxUJc7+/z6X5FAACASFNY1eImaXFDjcHk5ao4wvPCWp1wURejFKN0Xz3HbiUYsPzkodHkadQQAJHFdHgYBAxhDg/16/u6PFaVM4wtQhPmkDQKjQqr5dLCVwwE9yBczMN64dtwvXqCV0b1QjZvZZNPucSu2OtuDXHrnY9Z81drlF2o3IKvKe/ra+2sEbQQ4vqmplYvonoAQGxwVRzRjQbMJy8i6ZrOd6meM9Kk+zpryN3yil7EkZ1tGE6Ebt9QAQAihdHwCB0wWBweQnzSpbeC6Mo2WVYMPTxMMBmSGkL3VPy+MtASdgwFQKgXXLoqXmlxexUPjvhby7MqvcpBI6yzFxUpltjFROVLGEKsARVWtbi9lUWqNX9tjizmK6y/tVz+lJ3t9lZW1khRvKui2uOtqfHicVkAgN0YTl7+1nJ2ipV3ChilK2+j+lvXBe/4C2ss64JPCDLHjCdPo4YAiBXGAUOYw0O1edhXz+z+LSz2EPN2buUx09giBCZDUrOb2SQ08tWzy/MmO+oAMEa4/2P8KJjO/STdJ0W6PKR3C0tV1OgZEnUB5SFNbtVNNdXDKJqseAQFADB+LDwyq0I70+lOXkZTrPHUy1QjPILIzHJMKc0xg8nTyhwPgBlWHplVofuAtzZgCHt4sAc8XarWmRGgOWYSW5jqrSqqGXbBY4oYSNNTVfsIXYB15AHI8TxPRN3d3QUFBQQAAMCAeJwnffVcEXXhV7pBtOnu7iai+Bog/tbyrNaKAcs76AFwLPIADLEJBwAAQByh2Dkg/I4IHi0CQECxE9jXVGn0GB8A8QrCegAASCiCr+nLqizESj0ADMy7JYt8LVipB4lGqt0KAAAAiBiuiiN8RehsACQjhdU8X223EgBEEazWAwAAAAAAEPcgrAcAAAAAACDuQVgPAAAAAABA3IOwHgAAAAAAgLgn+N56uzUBAAAAAAAAjIWCgoJU9oONqoDYEI+/pxMlYAqLxOOvzEQJ+IwMTCEDUwhgolABx4gNsLOAvDqPTTgAAAAAAADEPQjrAQAAAAAAiHsQ1gMAAAAAABD3IKwHAAAAAAAg7kFYDwAAAAAAQNyDsB4AAAAAAIC4B2E9AAAAAAAAcQ/CegAAAAAAAOIehPUAABBf+Oo5juM4rt5ntyaOwt9aznEcx5W3+sdfWdzZ2LkKS5pF5LxEEMfoFY7jqvNKn20776ICznO7sRLRacQOQoT1ktsrT5pzpw8wJuSJQY+49e2xomuNpLOCZXTMlXwTg8EISkKv0Q0ybI88Yg9z6dSSPGYACY+/s9VL5G6pKrRbEyBifbW+pj75LlHJgqviCC8w0OIWkjxdYgp/pMJlr3a2EOz/OK3gby1P3Mu4r57jsiq95G4ZYB2opkjssBjbhBHdSgFgvFpM8hthIHkrs5IwsgdEVFgtTR1dHiElOEj4agsRUPhjx7lIxnDatcSpeoWFfPW24lWRx9dU6SVyVxRHxYSJNApiRxibcLyV62BbAICIr76ohoiIPNXyZdFVcST43TCJcVVUC9Gct7UTsyYAIBHxt9bXkOIKAOzHYljvaWlxE3krm3TX0MxvwzNbdoI3JoXjwc+qb2OqO5jxunSXIOjcQlfsPpPPcCvrCMqTpvKReP327Tfoocph5e756rMqvUQ1RUy6v7Vc0X92PV+UNRZn61fYTtmwMwaKq+JIdSH5W8s5Mez3VmYF1dPuTmCsxWVVeolItliwr4nhQMa9MDGLtmh5iB0uTt8cqntNMBlPOl3RXHT0fF99wdGWU1ZraONoYXChMxo78brhTbVtl3FPpkfmMYC1qSDMYEO9nTikX6r0Ki8fxzhjK1rXqj1udcbTvRbrzCyhh4D2vITqmLABhzzFpjcKFMOqXGc/nv4wMBoF1oneNOJwhNs3Z8+e5fWQ7h96ukTR3TKgSDUvo/gsJrFLeZ4u4/ziRyk7cwcTjB2jEy2hswmH57XnSHlW5DMsniT1XWcxt/TR3H1ihqEpdBabBVW7PKTebsI4bbA7XR61qRRdHWhxK9yZzaEylV4NjBZKhfguT1RGydmzZw1sxQxt/VMqZjBWSzO8pQSNxRzhQKF9RtbJMMVKLzRmUQ0pVeXmwzM6GJlCdwZRJ6quCSEUNnSSYHZx/CkOyI2qyxmcAXMbj8EUQd10O6ffvPqUm5xDoyutXRNr6IlCdVEn9RXEsCcDLW4hp+rUq6eLMIONELGKxtGM/NjgJBk7RqiKzDzVSCldA6n7aDoEtFe+EDMIExSGyGM8rMzjvdCjgA8d1fC6VY95GnEs8gC0HtYz5zDE9BFi6Jh7peY0Iq6PJGMM69XTp3Io6k3C2mGhCnuN/SdGmIdoWt3U0bjQD90+sFnHENZrv1LplzdQNNIYX611AnvliQ09KRvNBky3HORA1sN6wzFhrRf6l2qNYdUXQ93hGR0iEtYb9cegTiNr6GWUPdPiGQhp4/BNoapHOQq01zVVioWAJsSVNtaEHdYbBFgmwbK2i8qU8IKN0F8n9Gs3CQzVBtG3VIiKrHmqQZ/0P1qpOOxYSyhs6m6hhlWoeC+CYX2EphEHIw/AcF5wWVgl7sTp1DnI3O4Q75uMCX+fcJdDuunCyXflgZ24iivcREQ1nT4i8nXWEJncenNlCwe8fX1EfX2KbRXjdBD76OvzMm6p7QczAiLps/4+H2s7tnZXcYVbu1slpkjPnCnD+5oic3WYO58WTBVXDiQpWVRDRJ6u4GNsFnphaBaprPGAC2t4xgdjtwYRta4TrOtuGbB4BqzUGkmk9gqz5cdS2FnTmAhdaZ2LFAPoPIUpH8rOlpKys4UQzNcX9QnQRLHIVjSuGU96qkdwI3GXjNhSRKdSaVu96YAJMayiH+9FfBqJB8J6b73oMDU1Slfwt5YL7qG9wzpmtN/O4vph9fiHDRyEsCHcN1ppv+7G1UghIuM++Oo5rsinWXGIFEajQXwHQpdHmhdt20utDu+NQxPVy3PCMFVcOJDiVr/8RiB1Bm0vxm4WIorE8IwUUnCqCxOOmTJOa5DXK17A9d7zEBd+pEs0rrTAuYzRUwuLPUTCXKCM6sdbsYKIvtcyOvFeVKcRJxPmz1EJC/ZKRM+JzAmWVyzw/giHIS0C1HTWC2GDyZKFYlFFWk4RVhLjl+xst1EffJ015G55JSpfPF3ZhaFGgxhTd3liO2z8rdqnCqWTbRi/iSvJ4bw6If4cqLA6GNhL37TMe2FuFgsrkuEMz+iip6x2adqUcVvD3TIgXcSDV2TzMxDDVV+D9nSWopVE9ErrXEzuWugcCtO1oqRYZCsa74wnhmk1na3iE63SOIrgVGrxvZYhhlVU473oTCPxQLi/MuuqeEUd2Kt9VJqdxoZ0RVSY0Vfv3Jc6JA/SIkBNiDda+VvXCXe7hDyyy7Brl3H4NndXRbVHtb3EVy98ys52M1O03H+hWHahaupQBurK3DoUVrW4vZVZjLGkeNrfWs5o4+/zxeTixlJTxClfwKI48/LUyUza6slUuipLSLMJc+GJRwcqrJaWhqRTZ94Lc7NIa/Hyq8j05lirwzPayJsA5PemiXfrrYejIawhWpK9RPjqNc4gG9zaGbBk4wiiMZMQJwWXB7RjJ7JXWucixQDMeZKmOmldUfoVHcm1PF2xuOMiDrHgb/ioZ68IVTTuGU905prKSuV7aiI3lQohc+hpJtSwChXvaUeBdaIzjcQFwh0PS4/MqhN13vpAROR2mz8eFeKJD4O7i3hiNiKM9ZFZ1VEDhzA5X4avl7GNcB+ZDR7T6yVjA3dLl/Kh2OAxzRsVpNwmj8yqq2dMp9ImSgY1eWRW58yrTrxCReWDZ0J2t2b0s8e1j1LZ6kBhvAlH5zUcvGkvQpjFdI5VZ4mBZSw+J6rvFqEfmQ3lJFpLmj1NqPNwop4fWbDxOEyhdwnTH9d66ui8qyTUlTbWROqRWWUZrQcZTsLRfmRWo5aeYyoNYmyt8D3c0ptwtIU17mA4BCw/MitmtOhooYeVWbynMwrUGNs5atOII7H6JhyQYIzvRBtcoOy+nIwN+LxFzN6Ek2Q42w4hXrcXWZxtipgCUwgk30Sh894ulkS1hpX3WoYoHNFJKlHtHC5jehMOSHKkvWr27dsFABiA4QlALJH3TSX0sw4afON4ekfeNYWfpY0iqXYrAOIFaUBiRALgODA8AYg2vnr1KyHZl9gmCYXVPF9tObe/tVz10kp3ywDeaxhVENYDi7gqjvAVukfCG+YAgIhjPDwBAJEBl7qwwcQUe7AJBwAAAAAAgLgHYT0AAAAAAABxD8J6AAAAAAAA4h6E9QAAAAAAAMQ9HM/zRNTd3W23JgAAAAAAAICxUFBQEHwTTm5uro2qgNjQ09ODEy0AU1ikp6eHMD8QEXyGAaaQgSkEMFGogGPEBthZQBiAhE04AAAAAAAAJADB1XphNw5IeHCiZWAK68BWArCDDEwhA1PIwBQssEZsgJ1ZsFoPAAAAAABA3IPV+qQDJ1oGprAObCUAO8jAFDIwhQxMwQJrxAbYmQWr9QAAAAAAAMQ9Ya7Wn/3nySXPEtEzHR//r29FVpPAm6u+8Xg7Uekv/v3g9zNj2nRyEd732ouvrqy9tvbnP12cHjWF7ANf8a2jtdXf//73kKW++tWvRkcdgaETP3nyD98VvHPoxE+ebJy+49AjM6PZInwmCEwhA1PIwBQssEZsgJ1ZUkNnASDCDJ34yZONlKhfFkBEufjqytqTi6IergMiEoem+Jq03OQeoRdfXVl7UpST2/9gCQDiiDBX66U8PB/xb0fB6vTrDq/ps/+cXrqbqPQXH762Qlr6DxxePevxdqKd7UPJvN4f3pnjxSIRPd2TF+06uChsVSKP3e3HE2OzVQQsnL/24MG1BjXxPMneycuuOt4WTUlknxk6seuppunbD+6aKX548tWsg2sNg7hENsXFxlV116peOLg4XfhQ+5NpL+wy/o6TwKYI0xKJbIoxAGvEBtiZJbi3nmdiN2OZwswfniwkGORRNByyTl09WaKhf6LKFm0OOQllKzhBzwj21wlqREP+y9GmntyqZTOF9MmLHlpIJ18/MeQI3WIrD554/SQtenhxupCev6wqt6fprb8Y5HeM2lGQg5Ygnuf5/Purcnua3rpolN8pajtAhkFiKduugENkAfUmHPawIA8eXjPrR+1CSmlpqXxMznP2xYylu4M17Dw++ONvEc/zipKKg3Idf2KKButmlVCpq9JNr2lFu+2Pz8p4nIh2Hj9OS6Wsu0vTdxNR6b982Lwig+dJrah4IJhe+i8f7qMts37ULh7S0S3w5mp1X2V9JC3lwlKCaA3eig6y6QYPr5aUal6RIeqgew4MbMh6gzJx6ORPn27qkZIW1ry2dqYyz18aV3tOBWvKrXr+J4vSxXqUhYVDPBFdVJQRK73YuNrTL2QR6lfkEuvV0x9y7GUWo3QjIqDD0MmfPt00reY1adV46MQuxtGIchcwKrG+zfqU5FLj18d4+MS7PDTQTzQta7J8YGbhQjp1bYinybbrFmP542s9lLtgknxo8uwFufTuwBDNTDcs6wC1oyCrLZE+e0EuvfvREOWbjCb71XaebLsCCSzbroDT5BCbcLpfzFxaS0Qlr1xoXpFBg4fXtLcTEfFidvH4juOBHxcQDR5eM3vd7qUZZ4Xc6eVNgXJlVbuXZvBCXiFzB8mFu1/MbG8X9NBVRV7FD910eVNgqnBU1JuIiAIXpggtikWEtkQ1pIzdL2Yurf3RrIz+44EfF0h6tP9oVrtsJB3lVFaSP0uq8urCqq5Y0SFYmZgg12Z6DvTsqGtduti0pv7Uwurmf5opfvzZR4N8fjovtyXovbC6uWqmXODpRldz1UyioZM/29w8TS48dPJnx4Z4fjJdbFpT37/muWYxSJcqVW7tGTr5s83NJOeSC0cfA1MAHcZmqwhYmJedhTReOnTyZ5tPi36kyCc5ZLPsq0//lH/unxaNf6d44vrM0LUeyp0/iekgT0T9wojVI2FNMfRRP9E0V/ALDvE8Uc8142kpUU0RviUS1hRjA9aIDbAzi2ITjiyI8uDhF2uJiGjHj1dkEM/z6VMLiMnU/aIYzT58D09ElPGd8hIioo4jfxxUhsA8z99z7w4iIqr941me5/nu1nUdJBYmIqKpU0uCaqnKKs6ZGMuKTVcUEBHx6ffKTQcU+dl6tPUPHt4ifLV4QgiBGS27g5WUvHLe7/f7/YFAs2AHhW4B2UpPlKfrfoPU75dkc2s66Hyl4EljCF5jCLas/L1Aa9uhk785RQur1+RL6flrnlmYrmqLZq5pWpMvlc2/f00u9Q8MERF93N9DudMmS3VOXvhM1UyS1//SpfT8Nc9oA6uLx5p7ctesX5Qu6jN54T9VzTTSM4KyZP9o1Z8YMvtR14YhGa8OTD2il1bNVOmgkS8ea+5ZWK301Z7TF4bGpY/81yGnJtKybEJLw8QoPRFkAzuQwQbRBDZFsOcqUxiMjgQ2xdhk2xVIHtl2BeyV5RRSbcJhD/A8T/3XO4iIaMe997CHJAb7u4mIqGPdHNc61TEpf/eLmffXakoGy5aU35shZNa/WjCJbOUBuenZmeqmtaiVD9Yv9bD2/ky1ltr+auwjcF22UoGYrrgs6NSpuFCErYNCn8FQhtA7cTp9+bi/h3LnTzbqY1C+1FxVfypYTe584nme8uctpFPNm9c0E9HC6qY1+UL+ybPn51Jz/ZpTRJS75rlnFk5W6sPzPH2svvUfWgfIsZNZrOQxKjJuHXgSvz3Onxysk22IkYcG+ol66qtOKWoQfTUi+jjh1ETpdPP65rVft5i7fRiu6xC1o2WKcEaxQ9R2gmy7Akkl266AQ2QKsQmHsZcoKlKkDyUH/ndjuXq/B88Hjqz95voOItr+1sATBUTdL2Utq1OXDdatTTFRJkTTvI7qet2Rk0QVVdUMhlDJqFpViqZnyuNh6qCsLaQh9PQ1sC6v1032wKXmtXs6c1bva1w4mYjo41PPbpF2QOStbmxcTR+fenbLa6fqq04RFW9rXJNPk4p3NhaLBZs3VzVTzup9QnAv18rLso6uUcaWRuOUsdkqAhZmHETjpaIDSVmC+XjJ06KjTkIyaWoOnbo2xPOTpBTDWUE6nKCmmOSaSnTtoyE+T3KgULNUopoifEskrCnGBqwRG2BnFtNfmZX2xfz5+qDe4YypwvaZDu97OscH3/MKu2wOPKwOVtmy168bNN79UlZWVlZW1tojOpWbN20dqYd173VbLzR4ZK2g2kvdbB0GVlJtLwpXB6mnBkTKEJOn5dDV/o9N81w600k5q9drYiWmloXPNDY2Nu5bnUOdZy4F0/PXNDY2NjZuK6arpy+oGpmcNY2of8C8aQBI8FJL+bKm6XgaMEczEj8e6Kec+bNj8ZSLw9BMhx/3X6Xiefn2aWQXsAQA8Yb6BZcK0ovKlhARdax//SzP88G9L2LuezYd3S4c33o4IBU6+1JWVtXhAJ8+RQrc+3XLFm0nIqK6l8Si0l4UuXW1XmS5aZ7np0wRNJe22vM8L2tU995ZOcld37CEiKhu2UtyYuBwVVaW+NHANKwqoayksYSqKyF0EHtC3f0BReuiHMoQWsV1Unl+UvGDxdS5p/milHCx+dmTQ1JjYp6pOXS1f0jMMHTywGtXpUMXm9cGi/JD/VcpZ+oknh86+axYC8/zvPj41SRlrXze0lU5V187cDJY8bNMXdHDyBRAhdH8YGV+GWfTw8PDPOMsk2Z9h3UVhQuy+USf2sL65Mlnm/99dHSc+iS2zwhWOyYabejkgdeu5nxn1iT9zAltCmE6/I3kaBeb93RS8bfzDHInsinCsUREhnwiAWvEBthZQL7smv/KbEZ54zlaO3fD23XLv15HREuWLFFmKNj00UdFL399ed2GuV/fIKcuabg3gyhj07mGbuOyBZs+OkpfX173tlh0yZIlRG9bCRVCN02UUb6nwfv2hrfF2rcf/WhTARVsOrq9bnkdCRotaTjXWJ6RUd740b1H1s7dIKopsn1TAZHF9W8LVlJYQq8CQx0oo7zx6A3GTmEawjL5q1/dSo/sfaRT/Jyzaq9qmW7ywp1br8s5clZtXZWz949i4W8X7w0WpZxVe3cunExEs79DW7c+clBKL9766mrtOs/khTv30m4mX/HWV8NSHSQq169fz/kK81npKgoXVDJ54c5Xs15j3JmoeOuWK1doJn4h0xjRvI88InyUh3ESkr/61a2vPSLPSfozV1IASwAQX3BCjN/d3Z2VlWW3MolC98v/pcxDRDVtf92kswHJTgYGBnCiBWAKiwwMDBCR1lafffZZyLK33377eJq+devWzZs3v/jFL46nEoHh4eGUlJSUlJTxVAKfkYEpZGAKAaOJImmBY8QG2FlAGIAFBQWme+sBAMCA2y0wziZSUlIuXbr0+eefj7Oe0dHRrq6uccb0AAAAgMMJ8XNUYHw40ahO1MkmYArr2GWruXPnHjlyZPbs2ZMmTfrKV74SVmg+Ojo6PDzc3d19xx13LFiwICJdgM/IwBQyMIUMTMECa8QG2JnFcLXeyExID51+z8YbN27cuHFj4z3W8tuR7gQdkB5f6bbowHHcihUrZsyY8Zvf/CYlJeXRRx8lIit/9+7d29/f39nZOW/evLvvvpvjuGjoGcGqkJ4Y6Q5UCaawPd12BZIq3VHKxD49uLc+MzNTtwBIJAKBAE60AExhkUAgQESwFcFnGGAKGZhCABOFCjhGbICdBYQBWFBQgE04SQdOtAxMYR3YSljvhx1kYAoZmEK+GwZTCMAgsQRGZm9H45FZAAAIDa4cABiB0aFCMAjMAmID62lYrU86cKJlYArrwFYCsIMMTCEDU8jAFCywRmyAnVl0wnqje81IT4x0NsVpusU4HT5vMZ1gK43POEclu9LhEnIKTCGnwBRsIqaL2KTD69jEYFiflpZGIAnAiZaBKawDWwnADjIwhQxMIQNTsMAasQF2Zgm+CcduTQAAAAAAAABjQfEmnLlz55JySR9y4snnzp27++67naOPjfIHH3wAn7foM4T5gYgwfDB89GSYgogIE4VGPnfunGANJyiTwLJsZycoY/sAJHYTzujoKIEkYGRkxG4VnAJ83jqwlQCGjwxcQgamkIEpWGCN2AA7s6hfcCmE/5ATVWZxgj6QnS+zOEEfJ9jBISpBdo7sEDUwOhwl265AMsi2K+AEmSVVm8MJKkKGHINhYOLz/aMT/s/whP97i/uU1x854+FLHD8phf+vaZ9PS/08pJ7Xb6XETJOx2SpJZPa+p0NUslFmPzpBH3tlmELeCQBTCDIMYotsuwJ2ybK/ERvWAwCIaJin0/9I7R+N4i+1fcpzn45y/aMTclNvzfvCrTROP5tzNAGkA1fKzgAAEe5JREFUCWoBADIYHSpU3/cAiCqsp+FXZgFQEO1ImqVnNOXMP1KcrwkAAAAAnE/ch/X+Nx687bbbbrvtwTf8dquSkFxocLu3dATsViNW9I9OiFkkLdAzmqLbonM0cTCBji2ydwY6trjdDRds1ggAAACwD/Xeep7n2c06zpelFI7jOI6zXx+Hy6TcjBValstE0rb+ji2PH6D1v3yuNMM+m5Cez//HsA1x7X8MT5iW+rlKT7s0mT6RJ43PkJ6trl+/HrLCKVOmjPd8XWgo29GxZLd34xxtnuDYF2VhFoi+z0SvCZvlQPvmxw5cEVLvWv+LfSWucIZPQsnn97t3vi3ItGR328Y5JvkT2xTn95cxltAdiaJLJLwprMswSMxkGJmYAUi6b8Jh3TEuZKFTztHHyTIp518rslwwcvq4SvZ5254rzbTVJrr9+tutYHrM+NstTqunXZqwOmgzGKUbEYHzNXtDW1vbxjmhxz4RUfR9xvYhHEU50L75sQM5tW1er7et7Zfr6cDjBz6M4bTgJPlCg3tn7/pfeNva2traakve3rm53W9e1hFqR0G+0FC2s3f9L7xeyRJb2v0hXMIJatsuc8z3PduVSWxZxgnK2CjLdtBZEeQ034GcLxPZr0OiyixO0Ceq/dJ528zQsc5VpYcV/14aUmVpLD2869in6pKB3l3azDqJQqMqPbWaDDWq1CjtPKHcHTV0rHNV6QcXdTqo1fDTE08eXlV6uPE8m41t1IoPWCGWY5+i7zNOcN0oyRd+d+DKXesfmC2kZ5auKaGO5o7B5JoWOI4jCrQ3d1DJmlKXkD77gfV3XTnw5oVQZe1WOwpy0BIckWyJD3Xzq3BKF2ySdYNOyFGSbVfACbKM+Y1+/xsPpqWlpaU9+IZfEoVPepm0R7XFH3zDT3Rmr5Bz7xlZTEvbe4aImM9MNcFEAw1CodKQbVA+JHxU6By6h5ZKq/WX8jqPQPvmsiA625QvNJSxbG4PGBUOHlKWESu90KAqrcilOOIMsre3rzgo/pu/6PhpbUitQ+aMXXuy6fhpJnT+9ET9uZ78uS88kT42PXI3fU9SY8ULm6ipSvsdwxIXX/p906Xs7e0r1s4ZmyKxI9C+WeGMrKPJ+0X0YH3KgS7lOAI3rhLlTMmUE2YvKKErvYM2qmQXg71X6K4ZGfLnzHsW30VXbyShD8ESY8XkCw8AUUUR1guOyP4VaVs5bRPtHxkZfne38Gnf+0KewBsPpk1b2UZlh66PjAwP9x8qo7aV09L2va+ooW3ltGkr25StENHOBWl/KB4Z7j9UJnxIS0t7576RkRGpkb3vC5oUbhseHh4ZGRkeHh4ZuX6ojKht5bQH3wgIR0315zjuzN60aSvbiMoOXR8ZHh4eOV1LGk10ey3IYg/LDvUPD4u6ta2clibqJudVW4yCract2Em73x2R7EM7FwhRv6629v290FD22IGc2qNHj7a1tR09Wldy9cag2CO2dyW1bW1CnrqSKwcea/iQ44hosGPLYwdy6sSyR3+5nnqHOCL6sKFsx9X1v5LSa0uu/nUweNbE1gc7Npft6N3wKyFP2y/Xc71DMei1kc+EJH1t+4rtSz9pqtJdF1cy5+7tS+lkY68Qeg8d+1PTpeztP5+hF9SHrUn6/cUHm+bmHj+tc6PAlIsvHa47fmdV090z9Y9H0Fa6pcL+G6xH5aW/Wn+XSh9RDrRvLttBQV/NOfDY5vbBSPiMA4ZqlP4O9V6hvJxMVXrvXwfDcolE+Bu40UuUMyVT6YRXegeTzjHkr3qKzl7pHTR2CSeo7ZC/MEgsTe0ENWw3gkAwrOekDWHsX/FY2aHrv3s4k+e57OwyIiI60zfAcRzvaxai9dqtD2fyPMdlPbRlNxHRjvn73mduQkkx8fDwbx/OCqbXnh7Z8m2ey7rvoTKplW2FPM9LjbzfN6DWh+czxdxtb7wjHGU6oNWfH3h9306hsa0PZaofZOH54J4DuRSxKYE3Nq5sI6LdWx7K4jie5wuLhW8FOzt97BMbcoukSPHtWbCTiMoOrSnkeZ7jsr4rKf+HgJ620f/L9pT9O9jxWgeV1G2cI6XM2vj80gyxR3LOORvaNsyRSs16YH0e9V738xzHBa5eprycdKk219LnN8ziOW7w+lWinKkZUvqcjc+XZEhnTarn/G8bruRt2FySIbbiWrpvw6wYWEPX58kiMx+am0t9vvMWcj4xf9Glc/uPfUqB3v0vf7Joj24wPVZNMmc8vJR6/m3Q+or90LHOuuN3VjUVL87UPW6kydg0jMz5ItFbNF7KcxzrzyT56vnfHbhSUqv01Ssnu/0R8Blbhq1dk4NJfyN2cp35lzQXFG0KYyX7FY7aX23vjPobySGfEH8Fa9iuRsL/hdfJ/iag+Dkqzjj816RwRBS49j4REZVNny6Vys4uI2ojOtPn5+ZxqrLamkO0Iuf3v/7g1OB6v+Koqf5c/zWhVO1984SKjVrX1+2aWHzngrSdoaxhbJ+2lVMnriQ1Otra93fw6mXKW5yhf6bYlA/3L9/eEexE3mKOI6I53y2hjobHyhqIqKTu6EZpe27B/8ijhu1lHUSUt+FXz5XKqz5BCwT+2ks0Y4rLpq+25j5vTGbGgnxqemdo7ZyQ22nS1+7JXrXt96uIaOn8XYabXsaoycz7sun4tfOBGQZhuoKhY51PvfzJoj0rTDNH1lYROF9SPSZeqvDVwb/2El3eUdahUET01TFrIl8/8DeSJ9eZf7W9M+2v/QrH8ETr9pdXPjqMvzzzrdh2ZRL+r+0K2P6XHYBx8CuzZ/ZOnL+DxFsGLvK//oA2wo82tadHts4bc2lR87jnwv7l2zvyNvzqaGkmEVGgffOjJ8RDszcePbqRAu2bH23o2L68QwruM0ufO1oqFmx4dHmDFNwnGXPu3r60r+549vaxbqmPDP/2p6cufUL5c5c5fj99BIi8p8nXjwQlIyePOq4OEiXd+FSTOWUGUe+NAM1OdlNYt0Sij46wUQWdAEQV1tNCvQnHIJ04johc2UKo23btmpQsLW/Py3Yp6rFSJ+kOgDPv7CAiotqtD7vIqM4g/tcfmDhx4sSJE/eeISJm15BfN7/UBT09OY6mTxeK73jnjF4eRWkT+7zxjl+bJ/aydqKR5YycPLocfDpO11YX/tBBeRu2SLGSsrscEVFm6XNHj7711q835FHHHy4E02dvPHr06FtveUro8ok/B5RlM6fmCBeOWNuEJcqT7/kP6o4TUV/dk73Gu2Ws6Dkuei5R1Z65uZfOPWWmhkoHrSbh6hbBc5eRk6eng3rcUeaUGXT5xJ8H2bIRkSPbHYfJLimEk9IDN3opb3GBSzc/izP0j6CckZNHl68OBtMHr16m0u/ODlHWbrWjIIuWCKYPXr1MpffN1suvwildsFu2XYFkkG1XwAmyzATtYXabDrt/VrF9R5DnrT5URkS0Y6/w5hd/694dRES1p7fOI55X71wPUSfxeipKkfWZPj8Rz/PSFwf93yNQwWd+92FhN/vK13w8z3Gcv08O0DlN9Rqdsyr2iz2cv/eMpP9A6wPitwZFaT37bBUe0G1bufF1v1Tnmb0TJz7wuj9aP0lgIrO3BVV5MkvXlFD79oYPpfTzDezLQziOpGvdkFg2cHxvw2Xp+PmXlzV8KNcZ6L1MeTkZRIHjTz/dLr0gj/df7yWaMSWTgq8XJyKa9cCGvMsN+9oDoj6D7Zv3X4iBTcjA560RGHz3Ei26z8rq+1Djtr7cTd872DQ3V9hkr49KT6uKXHynj/Knz7GwrJi76b8vnjNjV9Pc3EvnnjJ8f46uz2jTrao3vnN08+ZNZkjxroLFgqsIeQLt+xouk2LeEMvOfnBD3uWGHzI+6W/f3HBudHSc+oyzuMPlOf9zQ97lht9eENIH2/c1XM5bfE9GeMMnIWSX8HLP434h/cL+7R1UsmCOQf5ENoVr6ZoS6mhu9wvpoiVmmcwGjlDbSbLtCiSDbLsCTpBldPbWM7L8meM0Y5eIOC6r4s3R4te/P+UHP5g68QfCkbJ/vfGmuOOEYyrjSCfyFhPkVlQtcRzHcVkVb56+ljp/h7RBvaxM2L1PUp3K6tRdyHr4zRv0/Sk/aNsxf+IOqTiTQV09e5AjIrmHO+an7ggerd1ayHFkVlqoonDb6Oh9e1Ln71BkKPvX4ixRUY3Noy5rzwXHcURzNr3l4ZbVLG8XE/M2/NrF2JPjONfS5z29y2qWdYjHPRvyak4IdppzX+n2mmVSUcrb8Ovnl2YSUcFi+uEPlzVI6aWetzbOls0jmdi19Plf09M/fHR5QzAb6wMxto8lLr5xrid/7sbQu1k+PfHk6ZP5c1+4/0tEMzZuuvbUy3868S3t46ra6ckagd7Xj9OiPbqv1jEgc8auPf+5atvpXTnf23X/l/RyRNBWuv2yLl+7du2ur4ofOY4oU+EqsgsGy0q+7Vr6/FtT9y9jfJJKPbV/+Qv3zW+OWR9es7d+PF1zoiyad/ly4aM8jJ2gW4zlOZve8uxfJs9J0sxlMgQcoXYUZANL6I8O56htuwyDxFi2XQF7ZYW/CR+6u7vnzp1LyYBvT+r8HURUe3p0W6HdysScc+fOJcuJDoWuKX79SYo639Cxzqde/ur2dvkNNp+eePL3TZfYl8kMNZaevrZJJ0oeOtb51MvE5Pz0xJO/b6K5L6jfcfnDO2+F1ETTyvkPVm3ro6XzD0pb9jWqGpaVn53VvLdeq8m5c+eISGura/LeO2OmT58eMo8Jo6Ojn3322R133DGeSgRu3ryZkpKSmjqup4kwfGRgChmYQsBookha4BixAXYWEAZgQUFBHDwyC4Dt9NWV9gU/LZ1/8Ofq9fGel3+/6mXmc/7cF9b+51Mvf5K76XvM2vyXFlfPfbfq3FMv3XFwTI/PKlu5s6pJ+04bpapEerE7pd9fvP3q4bpth3W/jVhjnCG7FVJTU8+fP19YWDhhgvkP54VgZGTk1KlTJSUlkVIMAAAAcCAI6wEIcscE+n+fK5PS7y8+eL95qfS17SvW6h042H63Oilzxq72GZpGrWhi2IoFVdPXtq9QJc18YsXBJ7SNOo2ioqJDhw4VFBRkZGTceeedKSma2ynGjIyM3Lx587333vvyl7+8ZMmS6CkJAAAAOAH1r8wKJLJcVH3r1q1bt25tK3SGPrGV2b9O0MdGWdfnv5Zi+VnVyPG1FF6rp12akJ7PCNhyvjiOW716dV5eXmNjY0pKyrJlyziOW7ZsGRGZy9XV1VevXm1vby8uLr733nvZCsemj2wEu0zhKNlGl3Cg7BA1bJTZacQhKtkuwyCx9D2HKGOXzPpbcLWePQAZcnLKebdT/wjFmLzbdfSxSxPnnAtWTk1N3bp1KxEdO3bM4t89e/YQUX5+fqR0kFOcYxbITpAdooa9MkaHrgw/iY1suwK2y2yK8266A2Af0yfy/y0tpsvk37idnz5Rp0XnaAIAAACAuABhPQAKir4Uu3j6G7fzBV8wbMs5mgAAAADA+ei/t94Jr9aHHCWZ4zjbdXCITHo+fxtH993BzxjlLv2D/9stTv0EbSS4YwJ9LYXP/wI3fSLxvOG4u20CV/xlmjFC0dYk73bKTiMiTquDua2SSpbfW+8cleyVKeldghhsV8MJowOmYGUYJJay7Qo4ZwAq9tbLWSEnqoxzbVGelvr59K9wRIa/yxsJ2dK5mD6Rnz6ReP7z6OigluEz5rJD1IDsHNkhajhBdogaDpHlv05QJoFl2xVwjiygfhMOZMiQIUPWyjx+NhKygewQNTA6nCMLBuGZn6Z2iGKJKtuugL0yOwCxtx4AAEKjCuMAADIYHSoEg8AsIDawnobV+iSSWZygD2TnyyxO0McJskPUgOwc2SFqOEF2iBpOkG1XIKlk2xVwiEyqsJ7doAM58WQWJ+gD2fkyixP0sVGGKSCbDBMnqIHR4SgZBomNbLsCTpCJQefnqFinhAw5UWX2oxP0cbJMsJU0ddquhkNk9qMT9LFXhil45tl6h6hkrwyD2CLbroBdMhvZi87X3d1NAAAAAAAAgDikoKCAU63eAwAAAAAAAOIOvAkHAAAAAACAuAdhPQAAAAAAAHEPwnoAAAAAAADiHoT1AAAAAAAAxD0I6wEAAAAAAIh7/j/GuNFPC2RL3QAAAABJRU5ErkJggg==;" vertex="1" parent="1">
                    <mxGeometry x="44" y="-30" width="1010" height="131" as="geometry"/>
                </mxCell>
                <mxCell id="4" value="" style="shape=image;verticalLabelPosition=bottom;labelBackgroundColor=#ffffff;verticalAlign=top;aspect=fixed;imageAspect=0;image=data:image/png,iVBORw0KGgoAAAANSUhEUgAAA/kAAACHCAIAAADC5w53AAAACXBIWXMAABJ0AAASdAHeZh94AAAAEXRFWHRTb2Z0d2FyZQBTbmlwYXN0ZV0Xzt0AACAASURBVHic7Z17cBXXned/bQF2Jk5SHpB0leEhpF1LVIDB1uxYciAWMBUkDJIYe2OpwkM4cWIezpZtwBKQMYkREmB7amwjPHFiSeApyU5iuOIhOTWAHDPmkqCERUx4zOqBwNa9kncyU7WuiSXh3j/6cU93n+7bV/fRrdb3UyrVr0+fx+/8+ndO/7r7dF9BFEUCAAAAAAAAeI47nFYAAAAAAAAAkBAQ6wMAAAAAAOBNEOsDAAAAAADgTSYZkzo7O5OvBwAAAAAAACB28vLyVJkT6+tyAAAA0NHZ2Yl5EgAu0h1DDBAAHMF4yx5reAAAAAAAAPAmiPUBAAAAAADwJoj1AQAAAAAA8CaI9QEAAAAAAPAmiPUBAAAAAADwJoj1AQAAAAAA8CaI9QEAAAAAAPAmiPUBAAAAAADwJoj1AQAAAAAA8CZRx/rBljKBoS6QCK0sCNQ50SoAANgjUCcIglDWEuSkYu4CExwMDwCST1SxfrClTMioyD8nKgw0BwqSPDzzq0RRrMpPYosAABAt/opGdmIMdFQ7pgoAbmOiDo9gSxmuaIADRBHrB1uerPCXNg8wgbav/OhAc2l1AVwXAABUapubS6vr1HuXwZa66trm5lJHdQLAJWB4AJBc7Mf6wY4WP9VWlfu0yb7C8lKq7ggQ94o1UMc8rNMs/wnnk4upe+sCmlJsHl4j8rM/QfNcMFDHZtLWp90HAABxJ7O8qla9dxlorPDXFhYaMnEnL126fiYzpmtT9asj2Gm3rKzMtB1NMTMFAIgLdoaHScAQ5fDQrTrWOzNTpqzMTmxhwBjAmA/JQF1GhZ+oukCbbtpTrfLmOgAQCfuxfl+fn0ozMw3p4WCfCfslgi111crlQaBOyGgpH2AX/7A+XV3wJL0u7avKzy+sJX9LB3NKaqzwlzZXGlbuBFvKhAJS1xSdy6/IkIZDZiajSaCjmsL1BfsC3H4AAED8yC+sJeneZaCj2jh9mU5egTqhINA8oO6oDfQFySKdiKg2XE+tvyJDnVoDdZpVl1X5/sjtWzYEQHyIMDxMA4YxDI/S5nA9pdUFmruPTJnXy5n2zYcHF00AQ0QmQzK/aqC5NLzvaLnPoqfBljJ28A40U19fzGYHExbRwIULF4yJosZFTfecq2UG1kBzqbLBiKr/K4V4NWvTwnmNrWkKhpthGjxXS6W1tZwdAAAwRvjzpCgy85I02ZxrLg1vqhOW6eRlNtOaz8DGfMy0qyminRZNJk+7DQFgyoULF8wGiJ3hYR4wxDo8GL/XRCucfSaxRfQts2X1uS1CI4N+ANjFOABt39f3ZeYTRby/w96RD3a0+EvLC31E0kMBf0UG8ziqwPJVHM0jgkBHNdUWGl/HDfYFwk/DBEEQhIwK5baVLzOf/H19UunS8srK8lJJr74+P+Vn+gyVAQBAXPGVV9X6KwoqyPhM0nzykua+AsNDe7N0ItKsGQhPgqbPYi3bt24IgHhhMTzMA4axDA92JUw48Aj2BcgsFrCKLWzCH5IGLEKj/MJadReW0YEYsb+GJzOzVI6etUjr+JVQPL+yWQ6qA40Vfs3yfuOVr8XndHzlVbVSsB9sqeM84VMwXvYelZrML5TKBzqqa6vKfb5CKdgP9gW41w0AABBv8iubS0m546HHZPLylR8VRemunnSml0MXs/RAncCuRBiw/Yqj2eRp1hAA8cVyeJgEDFEOD/3HA8/V2lXONLaITJRD0iw0yq9SS0vXHYj4wZixH+tL1811+llfG+pL2fwVjQHtzXjN+nl7yMv5AszTAb1GmfnaZf2G8oG+lo5qSQsp2G9sbPEj1AcAJAdf+VFuiGA9eREpJ3rxnO7dJUN6oKOaSptf54UhmZmmMUbk9k0VACBemA2PyAGDzeEhxSfneLcVfZkW9xojDw8LLIakgcg9lS9iBpqjjqEACBPFNzd95a83l/o1b6gEW8oyKvzakSTdkS8o0NyMlxO1n4CIcLcov7K51F9RoHs6YMyRwVzsBlvK1K3MzFJ/RUW1Etr7yqtq/dXVfryXCwBwGtPJK9hSxk6x6kIDs3TtA9dgy5PhBQPSjZcnw68iMvvMJ0+zhgBIFuYBQ5TDQ7f2OFDHLB7OL6wl5oPh2n2WsUUELIakYTG0RWgUqGNv5FssyAPABvqHR1bvnHEeR3FfSTlXS7wnYLqiZi+r6Atodxly657J6d56MWTFuy4AgNix8W6uDuNMx528zKZY86mXqUZ615GZ5ZhShn0mk6edOR4AK+y8m6uD+ya5MWCIeniwO2rP6VpnRoBhn0VsYam3rqhh2IX3aWIgQ0917SN0AfYxDkBBFEXS0tnZmZeXRwAAAEwYj/NkoE4ooHP43XGQaDo7O4lofA2QYEtZRkv5gO1V+QC4FuMAjGINDwAAgHGEZuGB9HsneF0JAAnNQuJAY4XZq4EAjHsQ6wMAgGcJfzkwoyIf9/QBYGA+d1kQaMY9feBZJjmtAAAAgITgKz8qlkfOBsBEJL9KFKucVgKAZID7+gAAAAAAAHgTxPoAAAAAAAB4E8T6AAAAAAAAeBPE+gAAAAAAAHgT/vf1HVEFAAAAAAAAECPs9/X53+EZXz+BAcbGePwxoAQBU9hkPP5EToKAz6jAFCowhQQmCh1wjOQAO0sYb9ljDQ8AAAAAAADeBLE+AAAAAAAA3gSxPgAAAAAAAN4EsT4AAAAAAADeBLE+AAAAAAAA3gSxPgAAAAAAAN4EsT4AAAAAAADeBLE+AAAAAAAA3gSxPgAAjF8CdYIgCIJQF3BaE1cRbCkTBEEQylqCsVc27mzsXoUVzeJyXOKIa/SKxnH1eZVtx467rID73G6sxHUacZQoYn1lLGiPpHvnFDAm1NmCx/h3+CjhWmPCWcE2HHNNvInBZARNQK/hRh6OhyPJhzl1Gpk4ZgCeJ9jR4icqba7Md1oToGds9/Wr6ybeeWui4Cs/KkoMNJdKSbXn5BTxaLnPWe0cIdz/GK0QbCnz7rk9UCcIGRV+Km0eYB2oukDusBzwRBHyKlHheLWY4jfSQPJXZEzAcB8QUX6VMnWcq5VSwoNErLIRFkU/dtyLYgy3nUvcqldUqGdvO14VfwKNFX6i0vLChJjQS6PAAca4hsdf8SQMDgCQCdQVVBMRUW2Veq70lR8NXzBOYHzlVVKI52/pwKwJAPAiwZa6atKcAYCLGEOsX9vcXErkr2jk3m2zforPrPgJP9eU9oe3dddtugeg4/Umn0fgPIHXrGhTj3AL6wjag6bzkfF6nR406aHOYdXuBeoyKvxE1QVMerClTNN/9s6/LBssztavsZ22YXcMFF/50ap8CraUCfK1gL8iI6yecXEDYy0ho8JPRKrFwn31hgOZ98LCLMaiZREWyLh9wSn3nGAxnjhdMZx0eL6vP+EYy2mrNbVxojA50ZmNnfG6Xk636pdxT6ZH1jGAvakgymBDvxo5ol/q9Cori2GcsRU92WLcb3fG456LOTNL5CFgPC6ROiat36HaQstHCpphVcZZzscfBmajwD6Jm0bGC6KBCxcuGBOZx4+152SxtHlAk2pdRrMtJ7E3/WrPmeeXN5XszANQMHbMDrQCZw2PKBqPkfaoqEdYPkj6h9ZybmXT2n2ShqkpOLelJVXP1ZJ+tQrjtOHunKvVm0rT1YHmUo07szl0puLVwGihVUg8V5uQUXLhwgUTWzFDm39I5QzmahmGt5JgsJgrHCiyz6g6mabY6YXBLLohpavcengmBjNTcGcQfaLunBBBYVMnCWeXx59mh9qovpzJEbC28RhMEdaN2zl+8/pDbnEMzc60Tk2skScK3Umd9GcQ054MNJdKOXWHXj9dRBlsRIhVDI5m5scmB8ncMSJVZOWpZkpxDaTvo+UQMJ75IswgTFAYIY/5sLKO9yKPAjFyVCNyqx7zNOJajANwbLE+c2AjzCkRxpO1qxqOLYL9eDLGWF8/p2rHJ29mNo4VXSxs7j9JwjpuM+qmD9GlfnD7wGYdQ6xvvM7ilzdRNN6Yn8I50b72wEaeqc1mA6ZbLnIg+7G+6Ziw1wv++dtgWP0Zkjs8E0NcYn2z/pjUaWYNXkbVM20egYg2jt4Uunq0o8B4XtOl2IhyIpxpk03Usb5J1GURQRu7qE2JLtiIfI3Br90iWtQbhG+pCBXZ81STPvE37VQcdawlFbZ0t0jDKlK8F8dYP07TiIsxDsCxfnMzv1JeyNPB2ck8LZEfu4yJYJ/0kER5ZiOoD/WBk/gKy0uJiKo7AkQU6Kgmsnhy58uUdvj7+oj6+jSrMmJ0EOfo6/MzbmnsBzMC4umzwb4Aazu2dl9healxsUtSUV5u08b81QXW6jAPTm2Yalw5kKJkQTUR1Z4Lvy9noxemZlHKmg+4qIbn+GDs1iCilicl65Y2D9g8AnZqjSdKe/mZ6qsu7KxpTpzOtO5FiQE4r3uquzIzlaTMTCkuC/QlfAK0UCy+FcU04ylvCkluJC+ykVuK61SqLNW3HDARhlXi4724TyPjijF/X1/2oupqrX8EW8oknzE+oB0zxuu4cf2q/PiHjSakWCLaj2wZL4zH3/Ax60OgThAKAoZ7E/HCbDTIX2A4V6tMlo6tz9bH/Obxiu7TPVGYalw4kGalgPo9In0GYy/GbhYiisfwjBdKxMqFidEsidEa5PfLZ3XeByXGhR9xScSZFriXMXpqfmEtkTQXaEP9WCvWENdPbSYm3kvoNDIuiOG3tKRb+1pkd4rPUVfvbeDrFS5DuV1Q3VEnxRIWNzc0t1+UGy/SPcfxS2ZmqVkfAh3VVNr8ekKuRn2Z+ZFGgxxon6tN7rAJthhfX1QOtmlQJ99zjubDDePPgfKrwtG+cvll3Qtrs9i4dxnN8EwsPGWNN7Etidkapc0Dypk9fJq2PgJJvD9s0h7nprWWuJ5p3YvF8w3OrihdK0GKxbeiWGc8OUyr7miRX51VxlEcp1Kbn9qMMKwSGu8lZhoZV8Tyu7m+8tf10b7ecZUpa2wop0mNbQN17v2kxMRBuV1QHeEjW8GWJ6WHZVIe1WXYu5zj8KvzvvKqWt3qlECdtJWZWcrM22r/pWKZ+br5RBu9a3NzyK9sLvVXZDDGUoLsYEsZo02wL5CUMx5LdYGg/fyL5sir8ykzk+tnWOVUraDMJszZaDw6UH6VchNJOXTWvbA2i3LXXv0QGm+OtTs8E426hkD9apv8sN9+jBrBGrIl2VNEoM7gDKrB7R0BWzaOIwYzScFT+J6BcezE90zrXpQYgDlOylSn3GxUfu1Hca3ac8l4NiMPsfBvDelnrzhVFPOMJztzdUWF9is58ZtKpTg68jQTaVhFiveMo8A+iZlGxhf65zc2383VJ3K+OUFEVFpq/R5WhFdLTB5O4tXcuDDWd3N1e00cwuJ4mX7cxjGifTc3vI/XS8YGpc3ntG/fhvcZvueg5LZ4N1dfPWM6nTYJMqjFu7mcI6878BoVtW+4SdlLDaOf3W98Z8tRB4riOzycj4CIlr2IYBbLOVafJQmWsflCKt8tIr+bG8lJjJa0em2R8xYkz49s2DgGU/BOYfxxzVOH86WUSGfaZBOvd3O1ZYweZDoJJ/rdXINaPMfUGsTcWtF7uK3v8BgLG9zBdAjYfjdXzmjT0SIPK6t4jzMK9JjbOWHTiCuJ6Ts8wGPEdqBNzlpOn2PGBnzeJlbf4ZlguNsOEb4AGF/cbYqkAlNITLyJgvPVMBavWsPOpzYjFI7rJOVVO0dL/L7DAyY4yvo359YCAwBMwPAEIJmoy648/f6EgUAMbwSpi67wQ7vJYJLTCoDxiDJKMUwBcB0YngAkmkCd/iuV7Hd1Jwj5VaJYZTt3sKVM9x3N0uYBfFUxOSDWB2PAV35ULOfuiW7sAwDijvnwBADEB5zqogYTk4NgDQ8AAAAAAADeBLE+AAAAAAAA3gSxPgAAAAAAAN4EsT4AAAAAAADeRBBFUZfU2dnpiCoAAAAAAACAGMnLy1Nl/nd4srOzk6UMcIzu7m4caAmYwibd3d2E+YGI4DMMMIUKTCGBiUIHHCM5wM4S0gBkwRoeAAAAAAAAvAn/vr5xYQ/wJDjQKjCFfWArCdhBBaZQgSlUYAoWWCM5wM5ccF8fAAAAAAAAb4L7+hMaHGgVmMI+sJUE7KACU6jAFCowBQuskRxgZy64rw8AAAAAAIA3ieG+/oV/mFb0AhH9sP2T//VX8dUq9O6ar32vjaj4J/96+G/Tk9r0xCK6K+Arb66uubH+73+0NDVhCjkHbgbYx2ir//zP/4xY6itf+Upi1JEYOvX807/+huSdQ6eef7ph1o63Hp+TyBbhM2FgChWYQgWmYIE1kgPszIUf6wOQLIZOPf90A3n1CgLElStvrq45vSThMfxE48qbq2vIaNWhU88/3SB/uS17Yo/QK2+urjktyxPD/9hLZ5aJZwkAvEAM9/WVPKIY9+uocHX8uqNr+sI/pBbvJir+yeVDq5SHBKEja+d+r41oZ9vQRH4yEN2RE+UicT3c05bsOrwkalXij9PtjyfGZqs4WDh3/eHD601qEkVSvVNUXTXWFi3xhs8MnWo5TbREZ62hU7ueaZy1/fCuOfLG029mHF5vGtl5wxR8rjSs2XOj8uXDS1OljZrnZ768y/zCxxOmuHKsoZuyF+mcIkpLeMMUcQPWSA6wMxf+en2RCejM5WjzRydLCSZ5NA1HrJOrZ/T9hRzecI8+kN0j28ENesaxv25QY8zy0Klda9aseaax25jnD8cau7MrV8yR0qct+dZiOv32qSHndU66PHjq7dO05LGlqVJ67orK7O7G438wye8atccsX3lzzZo1a/acNuYJW4JEURRzH67M7m48fsWsTnd0xxUyDJJM2XEFXCLrsFrDw5aR5MEj6+Z+v01KKS4uVvepeS68krZ8d7iGnScHf/BXJIqipqRmp1rHb5mi4bpZJcz6IKXzmta02/a9uWnfI6KdJ0/SciXr7uLU3URU/I+Xm1aliSLpFZV3hNOL//Hyfto69/tt8i6ObqF31+r7quqjaKkWVhJka4h2dFBNN3hkraJU06o0WQfuMTCxIesi2sSh0z96tlH95bXF1YfWz9Hm+UPD2toz4ZqyK196fkmqXI+2sLRLJKIrmjJypVca1tb2S1nkkw2bS66Xpz/k5MssZulmxEGHodM/erZxZvUh5f7y0KldjKMRZS9iVGJ9m/UpxaVi18d8+IwPedqS5w8tka2q7cvQQD/RzIxpauqc/MV05saQSNNcpH9S5E9udFP2oqnqrmnzFmXTBwNDNCfVtKwL1B6znLv+0KH10izcr82jt0TqvEXZ9MHHQ5RrMZqc7o4bZccV8LDsuAJuk1WiWMPT+Ur68hoiKnq9q2lVGg0eWdfWRkQkytnl/TtOhn6QRzR4ZN28J3cvT7sg5U4tawyVaavavTxNlPJKmdtJLdz5Snpbm6QHVxX1fn/kpssaQzOkvbLeREQU6poutSgXkdqS1VAydr6Svrzm+3PT+k+GfpCn6NH2/bltqpE4yumspG4rqor6wrqu2NEhXJmcoNZmeQzsHmiiK43r6s4srmr6uzny5o8/HhRzU0W1LUnvxVVNlXPUAs82+Joq5xANnf7xlqaZauGh0z8+MSSK0+hK47q6/nUvNsmRu1KpdmXQ0Okfb2kiNZdaOPGYmAJwGJut4mBhUXUWMnjp0Okfbzkr+5Emn+KQTaqvPvsj8cW/WxL76nOP+IzGWhJDN7ope+FUJkkkon5pxPLr8IQpjAx93E800xe+6iFRJOq+YT4tecMUmmmZiMZiCY+YIl7AGskBduZiuoZHFWR58MgrNUREtOMHq9JIFMXUGXnEZOp8RQ5xH7tfJCJK+3pZERFR+9F/GdTGxaIo3v/gDiIiqvmXC6Ioip0tT7aTXJiIiGbMKNIow9FH2SYitenyPCIiMfVBtemQJj9bj7H+wSNbpeuNp6S4mNGyM1xJ0euXgsFgMBgKNUl20OgWUq30VFkq91qT3y/F5vZ04FxniGQwhGgwBFtWvVgw2nbo9M/P0OKqdblKeu66Hy5O1bVFc9Y1rstVyuY+vC6b+geGiIg+6e+m7JnTlDqnLf5h5RxS7xSmKum5635ojLaunGjqzl63YUmqrM+0xX9XOcdMzzjKiv0TVb83ZHaTa8OIxKoDU4/spZVzdDoY5CsnmroXV2l9tfts11BM+qj/XXJoYpcjTY9689pJ94JsYgcyWV/qJVNI22zXIuYxWsA93XFcdlyBiSM7roCzsprCYrqGh80tiiL132wnIqIdD97Pq2iwv5OIiNqfnO970qSqzlfSH67hNKWULSp7ME3KzD+FMIls5SG16Xnp+qat+8XWJYpKD2seTtdryTGc3j4SN1Ur5cnpmnMFp07N2SNqHTT6DEYyBNcDjH35pL+bshdOM+tjWL7aVFl3JlxN9kISRZFyH1hMZ5q2rGsiosVVjetypfzT5i3Mpqa6dWeIKHvdiz9cPE2rjyiK9Il+5UBkHSAnT2axk8esSMw6iCRfUi6cFq6TbYiRhwb6ibrrKs9oapB9NS76uOHQxCSb9IXd1I/UiSRLCVHld4PaiTJFNKPYJWq7QXZcgQklO66AS2QW22t4GCPKoiZF2Sg6+L8byvTLRUQxdHT9X25oJ6LtxweeyiPqfDVjxR592XDdxhQLZSI0LXJU53VHTZJV1FUzGEEls2p1KYaeafdHqYO2toiG4OlrYl2R1012x9Wm9Xs7stbub1g8jYjokzMvbFUWUOSsbWhYS5+ceWHroTN1lWeICp9rWJdLUwt3NhTKBZu2VDZR1tr9UsSv1iqqMkfXBONIo+OUsdkqDhZmHMTgpbIDKVnC+UTF0xKjzviHM+ymzsiiMzeGRHFqOJPJrMDU4UWm+mYQ3fh4SMxRHCjSLOUNUxiPd/SW8Igp4gWskRxgZy62fzdXWVbzu5uDvN1pM6TVN+3+Dzn7Bz/0S4t0Dj6mj2DZsjdvmjTe+WpGRkZGRsb6o5zKrZu2j9LDPR922i80eHS9pNqrnWwdJlbSrU6KVgelpybEyxDTZmZRT/8nlnmunu+grLUbDAEUU8viHzY0NDTsX5tFHeevhtNz1zU0NDQ0PFdIPWe7dI1My5hJ1D9g3TQAJHmprXwZMzmeBqwxjMRPBvopa+G8ZLw54zIM0+En/T1U+ECucxo5BSwBwLjF6pubGlILSpYREbVvePuCKIrhpTNy7vs3H9su7d92JKQUuvBqRkblkZCYOl2J5vu5ZQu2ExHRnlflospSFrV1vV5ku2lRFKdPlzRXlu+LoqhqtOfDC2pSaV39MiKiPSteVRNDRyozMuRNE9OwqkSyksESuq5E0EHuCXX2hzSty3IkQxgV56SK4tTCRwupY2/TFSXhStMLp4eUxuQ8M7Kop39IzjB0+uChHmXXlab14aLiUH8PZc2YKopDp1+QaxFFUZTf85qqrVXMWb4mq+fQwdPhil9g6kocZqYAOszmB7P5JcKsEg3Dw8Mi4yxT536ddRWNC7L5ZJ/ayvrk6Rea/nV0NEZ9vOQzxsMjWe2EbLSh0wcP9WR9fe5U0+KJ1c9JpOnw54qjXWna20GFf51jkts7pjD6RDSWiMuQ9xKwRnKAnSWM51/7v5ubVtZwkdYv2PjenpVf3UNEy5Yt02bI2/zxxwWvfXXlno0LvrpRTV1W/2AaUdrmi/Wd5mXzNn98jL66cs97ctFly5YRvWdbNcumidLK9tb739v4nlz79mMfb86jvM3Htu9ZuYckjZbVX2woS0sra/j4waPrF2yU1ZTZvjmPyOadchtW0liCV4GpDpRW1nDsFmOnKA1hm9y1b26jx/c93iFvZ63Zp7uhN23xzm031RxZa7atydr3L3Lhvy7cFy5KWWv27Vw8jYjmfZ22bXv8sJJeuO3NtcY7QtMW79xHu5l8hdvejEp14FVu3ryZ9WVmW+sqGhfUMm3xzjczDjHuTFS4bev16zRnov/m5ydndm873CPJPfse72BGq2Lexx+Xdod3TDxy17657dDj6pzEn7k8w9VDj+/rkOXD2x4/zHZ4YlkCAA8hGK8AOjs7MzIyHNHGg3S+9hcltURU3frRZs76JScZGBjAgZaAKWwyMDBAREZb/elPf4pY9q677oql6du3b3/22Wd/9md/FkslEsPDwykpKSkpKbFUAp9RgSlUYAoJs4liwgLHSA6ws4Q0APPywkGn7fX6AABgwl02iLGJlJSUq1evfv755zHWMzo6eu7cuRgDfQAAAGC8EMVvaYHYcKNR3aiTQ8AU9nHKVgsWLDh69Oi8efOmTp365S9/Oap4fXR0dHh4uLOz8+677160aFFcugCfUYEpVGAKFZiCBdZIDrAzF1v39c1sh/TI6fdvunXr1q1btzbdby+/E+lu0AHp4yvdER0EQVi1atXs2bN//vOfp6SkfPe73yUiO//37dvX39/f0dHxwAMP3HfffYIgJELPOFaFdG+ku1AlmMLxdMcVmFDprlLGwXT+ev309HRubuAlQqEQDrQETGGTUChERLAVwWcYYAoVmEICE4UOOEZygJ0lpAHIrtfHGp4JDQ60CkxhH9hKejIAO6jAFCowhfrcDKaQgEGSCYyse3AtgXdzAQAgOnA6AcAMjA4dkkFgFpAcuJ6G+/oTGhxoFZjCPrCVBOygAlOowBQqMAULrJEcYGcuEWJ9s0fVSPdGOpviNt2SnA6ft5lOsJXBZ9yjklPpcAk1BaZQU2AKNhHTRXLS4XXEgx/rT5kyhZsOPAYOtApMYR/YSgJ2UIEpVGAKFZiCBdZIDrAzF/53eBxRBQAAAAAAABAjkb/Ds2DBAtI+EYDsPfnixYv33Xefe/RxUP79738Pn7fpM4T5gYgwfDB8eDJMQUSEicIgX7x4UbKGG5TxsKza2Q3KOD4AWfix/ujoKDcdeIyRkRGnVXAL8Hn7wFYSGD4qcAkVmEIFpmCBNZID7MzF6pubKCY1TgAAFL1JREFU0oUCZK/KLG7QB7L7ZRY36OMGO7hEJcjukV2iBkaHq2THFZgIsuMKuEHmwr+vrxZzg96QISdhbFj4fP/oHf9n+I7/e1v4VIwwnMbAFwVxaor436Z8PnPS5xH1vHk7JWmajM1WE0RmH5u6RCUHZXbTDfo4K8MU6kICmEKSYRBHZMcVcEpW/Y2FH+sDAIhoWKSz/zWpfzSBPzn3qSh8Oir0j96RPen2A1+4PUXgZ3OPJoAMkS4AQAWjQ4fuIhCAhML1NPxuLgCmJDq8ZukeTTn/Xynu1wQAAAAA4whPxfrBdx69884777zz0XeCTqviSbrqS0u3toecViNZ9I/ekbTwWqJ7NIXbons0cTGh9q2qd4bat5aW1nc5rBEAwJuwsw0A4wCr9fqiKLILgNwvKymCIAiC4Lw+LpdJu8ArsqyWiadtg+1bv3eQNrzxYnGaczYhns//27ADwe6/Dd8xc9LnOj2d0mTWZJEMPkM8W928eTNihdOnT4/1eHXVl+xoX7bbv2m+MU947MuyNAsk3mcS14TDcqhtyxMHr0up9274yf4iXzTDx1PypQOlO9+TZFq2u3XTfIv83jbFpQMljCW4I1F2iaSbQuuvb7xYlGaRf1CXuTidydNVX7KjXe5kUY1/w1zDRPTuwetFu/en29TNIYNMRBlGJmYAskT4Dg/ro+NClnrqHn3cLJN2UrYjqwXjp4+vaL+/9cXidEdtwu3Xv98OpyeNf78tGPV0ShNWB2MGs3Qz4nC85m1sbW3dND/y2CciSrzPOD6EEyiH2rY8cTCrptXv97e2vrGBDn7v4OUkTgtukrvqS3f2bviJv7W1tbW1pui9nVvagtZlXaF2AuSu+pKdvRt+4vcrltjaFozgEslSLyj7a2ur3+9/YwMdfKL+smn+QTVza2vrTzbQwSfqu9Q8XfUlO3o2vCF5fk1R+46t7YO6ero+aKeiRfNt6ykwF4FuOI4ellXcoIyDMhmIcL9QMFwtuV8mcl4Hr8osbtAnof3ifOtm6ETHmuIjmr9Xh3RZGoqP7Drxqb5kqHeXMTMnUWpUp6dRk6EGnRrFHae0D5SHTnSsKf79FU4HjRp+eurpI2uKjzRcYrOxjdrxATskc+xT4n3GDa6bILnrlwev37vhkXlSenrxuiJqb2ofnFjTgiAIRKG2pnYqWlfsk9LnPbLh3usH3+2KVNZptRMghy0hEKmWuMzNryPh6l1+V/ZXIkEQZH9tC/Hzq85NREQ+JTMRCcKg3Ml0Kb/UyV9e1tRz+YN2Klo0z76e3EgUcoJkxxVwg2zE/tqA4DuPTpkyZcqUR98JKqK0xctk3Gss/ug7QaLz+6Sc+86r4pQp+84TEbPNVBNONNHAbjc0SA2qu6RNjc6Re2irtF5/Ja/7CLVtKQnDWfrcVV/CsqUtZFY4vEtbRq60q15XWpNLs8cdZG5vW3VY/lu45ORZY5zNIX32rr2ZdPIsE09/eqruYnfugpefSh2bHtmbv6moserlzdRYabzwsMWVV3/VeDVze9uq9fPHpkjyCLVt0Tgj62jqE3kerE+50KVcR+hWD1HW9HQ1Yd6iIrreO+igSk4x2Hud7p2dpm6n37/0Xuq5NQF9yMWWiMpfLTPb6GTXB+3hKwUyOa1psA7CAEgCprG+5J3sf5nW1TM304GRkeEPdktb+38j5Qm98+iUmatbqeStmyMjw8P9b5VQ6+qZU/b/RlND6+qZM1e3alshop2Lpvy6cGS4/60SaWPKlCnvPzQyMqI0su83kib5zw0PD4+MjAwPD4+M3HyrhKh19cxH3wlJey31FwTh/L4pM1e3EpW8dXNkeHh45GwNGTTh9lqS5R6WvNU/PCzr1rp65hRZNzWv3mIUbn3Kop20+4MRxT60c5F0KcDV1rn/XfUlTxzMqjl27Fhra+uxY3uKem4Nyj1ie1dU09oq5dlTdF16ZkpEg+1bnziYtUcue+yNDdQ7JBDR5fqSHT0bfqqk1xT1fDQYPmpy64PtW0p29G78qZSn9Y0NQu9QEnpt5jMRSV3ftmr78j82VnLvoGuZf9/25XS6oVeKx4dO/Lbxaub2v5/Ni/Sj1iT14cLDjQuyT57lPFKw5MqrR/acvKey8b45/P1xtBW3VNT/w/XovPSnG+7V6SPLobYtJTso7KtZB5/Y0jYYD59xwVBN0P+h3uuUk5WuS+/9aDAql/DC/9CtXqKs6elaJ7zeOzjhHEMNkTWdvd47aO4SSVNvqPc63Ts7XXOMiJTTli7/YO91yslK0ync+1GISBj8qIcoa4ZPW+q6dAqTUi5/0H7v0vt98t7L9ewJq7WmSKrHaYNM5P+OK+CG/0b4sb6gLDJj/8v7St66+cvH0kVRyMwsISKi830DgiCIgSYphK/Z9li6KApCxre27iYi2rFw/2+YZ1hKoDw8/IvHMsLpNWdHtv61KGQ89K0SpZXn8kVRVBr5Td+AXh9RTJdzt77zvrSX6YBRf3Hg7f07pca2fStd/8aMKIaXLKiliE0JvbNpdSsR7d76rQxBEEUxv1C6VNjZEWBfDVFbJE1KYO+inURU8ta6fFEUBSHjG4ryvw7xtE38f7an7P/B9kPtVLRn03wlZe6ml5anyT1Sc87f2LpxvlJq7iMbcqj3ZlAUBCHUc41yslKV2nzLX9o4VxSEwZs9RFkz0pT0+Ztekt6dEpnjdekX9ddzNm4pSpNb8S3fv3FuEqzB9Xnu0OAw51sLsqkvcMlGzqcWLrl68cCJTynUe+C1Py7Zy42wx6pJ+uzHllP3Pw/av7c/dKJjz8l7KhsLl6Zz95tpMjYN43O8SPYWg5eKgsD6Mym+eumXB68X1Wh99frpzmAcfMaRYevU5GDR37gdXHf+J8MJxZjCWMl5hRP239g7s/7Gc8jH+xhJQ9c0xXrvYHtj+71/k+eT9wZv9hLN/gvlhCXM37i/yGduOsePoOf/e3sA2v9vPP+a/paWYHmhoE0RiCh04zdERFQya5ZSKjOzhKiV6HxfUHhA0JU11hyhFTV/8O1HZ4SfDGj2Wuov9N+QStU89IBUsVnrfN1uyMV3LpqyM5I1zO3TunrG5NWkh6Otc/8He65RztI03l62d4Jw+cDK7crXCogoZ6kgENH8bxRRe/0TJfVEVLTn2CZlyW/e3+RQ/faSdiLK2fjTF4vV+0NhC4Q+6iWaPd2X9F6bHQV7pKctyqXG94fWz4+4Gid1/d7MNc/9ag0RLV+4y3TNzBg1mfNQJp28cSk02yR21zB0ouOZ1/64ZO8qy8zxtVUcjpdSj4WXanx18KNeoms7Sto1isi+OmZN1JMK/sfz4Lrzv7F3lv11XuEkHmhuf0XtO8puPEaWKRZ7Q787dT3nb7alkyBNL768pTlUv4M5rfFaFJlLZTccR2//d1wBx/+LvLtv4+sT2nR+3+TJM5R1QvIinmRTc3ZEx7YH7JeWNWf45WO+xCmbMLoOrFy5vXfjT49J/HRjjrpr3iY1pX37ypUrVx7oIiJKL37x2LFjx/YUEV2r/+7KlSsn5rrp+fdtX05EmdvHukw/Pvzzb5957Y+Uu2CF69fox4Ec1U8VXiy2cTVkgXpS8ShpWTl0rWciLs/Xkz59NlGvKxalO4x9SyR/dETlr1aZI3Qy9LtT14rWsZOHrdOaLhIFIKFwPS2a7/CY1SUIROTLlALe1hs3lGTlRvgDmT5NPXbqJO6oOP/+DiIiqtn2mI/M6gwTfPuRyZMnT548ed95ImIWHQW5+ZUu8PQUBJo1Syq+4/3zvDya0hb2eef9oDFP8mXj7KPKaVk5dC38WhPXVl2/bqecjVuVSU/bXYFIngOPH//Zxhxq/3VXOH3epmPHjh0/XltE1079LqQtmz4jKzzRJtMmLAmekS/9fs9JIurb83Sv+WIbO3rGRPdVqty7IPvqxWes1NDpYNQkWt3ieOzSsnJ4OujHHaVPn03XTv1ukC0bFzm+3XGZ7FNDHjk9dKuXcpbm+bj5WdyhfxxlOTIMpw/2XKPib8yLUNZptRMgKzGymj7Yc42KH5rHy68j0er5mDOHIAiKv97v4+XXxfOCMChlTicShHT1QkDOP9hzjYoekn5GIPS7U9cUWVvnvE3Hjh8/fmyPfFqLOIG75Zh6UXZcATfIRkzX60sCu/SHfSqgWRIkyQ+slW6y79gnfXcm2LJvBxFRzdltD5C86M1+ncRdcqSE2+f7gkSiKCpXE/wfU9Ahpn/jMWmF/OpDAVEUBCHYp0btgqF6g84Z5QfkHi7cd17Rf6DlEflSQlOaZ59t0pvAras3vR1U6jy/b/LkR94O2v19hDjK7FNFXZ704nVF1La9/rKSfqmevVchCKScAIfksqGT++qvKfsvvbai/rJaZ6j3mvQeVOjks8+2Kd/sk5c5Tk+n8GfQiYjmPrIx51r9/raQrM9g25YDXUmwCZn4vD1Cgx9cpSUP2blPP9TwXF/25m8eblyQLS3c56PT064iV97vo9xZ823css7e/D+Wzp+9q3FB9tWLz5h+vYfrM8Z0u+rFdow+++wzZkiJvrylkqtIeUJt++uvkWbekMvOe3RjzrX67zA+GWzbUn9xdDRGfWIs7nJ5/v/cmHOt/hddUvpg2/76azlL7zf5cSIyO2V4QZY/yXgyKKV3Hdguf1udm9/LpvAtlz5OGZTSZUsYfmeKIXnqSWeOX8gnC8Vf00VF1ZUrVz57UrnHJ00Jv5RPcMGT+6TMRCSKacsri6UvcIqiKAiXD2xvp6JvzBVFQRC6flF/TZHldoMntygnR1EUB2/JpzUzPV1xHL0uO66AG2QjEdbrM7K6LQiGAU1EgpBR/u5o4dt/O/3b354x+dvSnpJ/uvWuvEJFYCoTiBOOywlqK7qWBEEQhIzyd8/emLRwh7LovaREeiOAlDq11em7kPHYu7fob6d/u3XHwsk7lOJMBn317E6BiNQe7lg4aUd4b822fEEgq9JSFfnPjY4+tHfSwh2aDCX/VJghK2qwecJl47EQBIFo/ubjtcKK6pVtcmLOxp/5GHsKguBb/lJt74rqFe3y/tqNOdWnJDvNf6h4e/UKpSjlbPzZS8vTiShvKX3nOyvqlfTi2uOb5qnmUUzsW/7Sz+jZ73x3ZX04G+sDSbaPLa68c7E7d8GmyIthPj319NnTuQtefviLRLM3bb7xzGu/PfVXxvdijXOWPUK9b5+kJXu5H/YxIX32rr3/sea5s7uyvrnr4S/ycsTRVtx+2Zdv3Lhx71fkTUEgSte4iuqC4bKKb/uWv3R8xoEVjE9ScW3NH/4g/OVfjlkf0bBeP5auuVGWzbtypbSpDmM36JZkef7m47UHVqhzkjJzWQwBV6idANnEEvzRkVz1fKb+Gs6jjlarzDRvE7+T1PVBOxXXzldPWEREvrylxJyumNysnk4YZELLjivgrCzy7g9yUjs7OxcsWGDM6kECeyct3EFENWdHn8t3Wpmkc/HixYlyoCPBNcXP/piizzd0ouOZ176yvU39fs6np57+VeNV9lM2Qw3FZ29s5oTOQyc6nnmNmJyfnnr6V4204GX9Zze/c8/tiJoYWrn0+zXP9dHyhYeV1wAMqpqWVV/SNXxf36jJxYsXichoqxvq0j1zZs2aFTGPBaOjo3/605/uvvvuWCqR+Oyzz1JSUiZNMr3TYQcMHxWYQgWmkDCbKMYxXQdWNM5mLwqiAo6RHGBnCWkA5uXlqSkxne0AmID07SnuC28tX3j47/V30rtf+9Wa15jt3AUvr/+PZ177Y/bmbzJ38b+4tGrBB5UXn3n17sNjek9X28o9lY3GL+poVSXiBfSU+nDh9p4je547wr1EsUeMcbwdJk2adOnSpfz8/DvuiOmLAiMjI2fOnCkqKoqXYgAArxM62diWs/Rnsb3SD4BjINYHgM/dd9D/+1yblPpw4eGHrUulrm9btZ6343Dbffqk9Nm72mYbGrWjiWkrNlRNXd+2Spc056lVh58yNuo2CgoK3nrrrby8vLS0tHvuuSclxfDgxZyRkZHPPvvsww8//NKXvrRs2bLEKQkA8Bzpy186vtxpJQAYM1a/myvhZbmg6vbt27dv334u3x36JFdm/7tBHwdlrs//eYrtl2Ljx5+niEY9ndKEeD4j4cjxEgRh7dq1OTk5DQ0NKSkpK1asEARhxYoVRGQtV1VV9fT0tLW1FRYWPvjgg2yFY9NHNYJTpnCV7KBLuFB2iRoOyuw04hKVHJdhkGT6nkuUcUomHvz7+mxuyJAnppxzF/WPUJLJuYujj1OauOdYsPKkSZO2bdtGRCdOnLD5f+/evUSUm5sbLx3UFPeYBbIbZJeo4ayM0cGV4SfJkR1XwHFZ52kS7ntOD4A7mDVZ/O9TknpD/Wt3ibMmc1p0jyYAAAAAGF8g1gfAlIIvJi/I/tpdYt4XTNtyjyYAAAAAGEdE/r6+G34XAHKCZEEQHNfBJTLxfP5OgR66W5w9Klz9L/Hfbwv6V3Xjwd130J+niLlfEGZNJlE0HXd33iEUfolmj1CiNcm5izKnEJFg1MHaVhNKVr+v7x6VnJVpwrsEMTiuhhtGB0zByjBIMmXHFXDPAFQxXa+vlofsVRnH2qY8c9Lns74sEJn+0nA8ZFvHYtZkcdZkEsXPE6ODXobPWMsuUQOye2SXqOEG2SVquERW/7tBGQ/LjivgHlmH1Xd4IEOGDBmyURbxQ5iQTWSXqIHR4R5ZMojI/Ni2SxTzquy4As7KIu++PtbrAwBAdOhiOwCACkaHDskgMAtIDlxPw339CSqzuEEfyO6XWdygjxtkl6gB2T2yS9Rwg+wSNdwgO67AhJIdV8AlMotprM8u+oHsPZnFDfpAdr/M4gZ9HJRhCsgWw8QNamB0uEqGQZIjO66AG2TiEeG3tFhPhQzZqzK76QZ93CwTbKXMp46r4RKZ3XSDPs7KMIXIvMTvEpWclWEQR2THFXBK5ob7nFX8nZ2dxnwAAAAAAAAA95OXl6fK/Dd2AQAAAAAAAOMdfIcHAAAAAAAAb4JYHwAAAAAAAG+CWB8AAAAAAABvglgfAAAAAAAAb4JYHwAAAAAAAG+CWB8AAAAAAABvglgfAAAAAAAAb/L/AWl3lwxX1ORPAAAAAElFTkSuQmCC;" vertex="1" parent="1">
                    <mxGeometry x="40" y="280" width="1017" height="135" as="geometry"/>
                </mxCell>
                <mxCell id="5" value="&lt;font style=&quot;font-size: 18px&quot; color=&quot;#ff0000&quot;&gt;10s之后，未接收的消息过期，进入死信队列&lt;/font&gt;" style="text;html=1;resizable=0;autosize=1;align=center;verticalAlign=middle;points=[];fillColor=none;strokeColor=none;rounded=0;" vertex="1" parent="1">
                    <mxGeometry x="44" y="258.7" width="370" height="20" as="geometry"/>
                </mxCell>
                <mxCell id="6" value="&lt;font style=&quot;font-size: 18px&quot; color=&quot;#ff0000&quot;&gt;生产者发布消息，进入正常队列，消息还未过期&lt;/font&gt;" style="text;html=1;resizable=0;autosize=1;align=center;verticalAlign=middle;points=[];fillColor=none;strokeColor=none;rounded=0;" vertex="1" parent="1">
                    <mxGeometry x="40" y="110" width="390" height="20" as="geometry"/>
                </mxCell>
                <mxCell id="7" value="消费者1启动，生产者还未发布消息" style="text;html=1;resizable=0;autosize=1;align=center;verticalAlign=middle;points=[];fillColor=none;strokeColor=none;rounded=0;fontSize=18;" vertex="1" parent="1">
                    <mxGeometry x="44" y="-60" width="300" height="30" as="geometry"/>
                </mxCell>
                <mxCell id="14" value="" style="whiteSpace=wrap;html=1;fontSize=18;fontColor=#ffffff;fillColor=none;strokeColor=#FF0000;strokeWidth=3;" vertex="1" parent="1">
                    <mxGeometry x="480" y="220" width="280" height="29" as="geometry"/>
                </mxCell>
                <mxCell id="15" value="" style="whiteSpace=wrap;html=1;fontSize=18;fontColor=#ffffff;fillColor=none;strokeColor=#FF0000;strokeWidth=3;" vertex="1" parent="1">
                    <mxGeometry x="480" y="340" width="280" height="29" as="geometry"/>
                </mxCell>
            </root>
        </mxGraphModel>
    </diagram>
</mxfile>